<?xml version="1.0" encoding="UTF-8"?>
<svg width="75px" height="16px" viewBox="0 0 75 16" version="1.1" xmlns="http://www.w3.org/2000/svg" xmlns:xlink="http://www.w3.org/1999/xlink">
    <!-- Generator: Sketch 50.2 (55047) - http://www.bohemiancoding.com/sketch -->
    <title>airplay</title>
    <desc>Created with Sketch.</desc>
    <defs>
        <path d="M1.99070571,0 C1.30343826,0 1.06644949,0.0617678211 0.805998822,0.185303463 C0.545074181,0.308839105 0.355720151,0.473553295 0.213289897,0.700035305 C0.0710966324,0.926517316 0,1.13261595 0,1.75008826 L0,6.38267484 C0,6.97955789 0.0710966324,7.18565652 0.213289897,7.41213853 C0.355720151,7.63862054 0.545074181,7.80333473 0.805998822,7.92687037 C1.04275061,8.05020012 1.27973938,8.11217383 1.99070571,8.11217383 L3.5785305,8.11217383 L4.24209906,7.4327278 L1.75371693,7.4327278 C1.56412591,7.45352297 1.35083601,7.4327278 1.161245,7.35037071 C1.04275061,7.30919216 0.947955098,7.20624579 0.876858466,7.10329942 C0.805998822,6.93858523 0.758364079,6.77366515 0.782062956,6.58856758 L0.782062956,1.56457891 C0.758364079,1.40007061 0.782062956,1.21476715 0.876858466,1.05005296 C0.924256221,0.94710659 1.04275061,0.864749495 1.161245,0.802981674 C1.35083601,0.741213853 1.54042703,0.700035305 1.75371693,0.720624579 L12.180986,0.720624579 C12.370814,0.700035305 12.5838669,0.720624579 12.773458,0.802981674 C12.8921893,0.844160221 12.9869848,0.94710659 13.0580815,1.05005296 C13.1291781,1.21476715 13.1765759,1.37948134 13.153114,1.56457891 L13.153114,6.60915685 C13.1765759,6.77366515 13.153114,6.95917451 13.0580815,7.1236828 C13.0104467,7.22683506 12.8921893,7.30919216 12.773458,7.37095998 C12.5838669,7.4327278 12.3945129,7.47390635 12.180986,7.45352297 L9.69284088,7.45352297 L10.3566464,8.13276311 L11.991632,8.11217383 C12.7025983,8.11217383 12.9395871,8.05020012 13.2002747,7.92687037 C13.4609624,7.80333473 13.6503164,7.63862054 13.7929837,7.41213853 C13.9349399,7.20624579 14.0060366,7.00035305 14.0060366,6.38267484 L14.0060366,1.75008826 C14.0060366,1.13261595 13.9349399,0.926517316 13.7929837,0.700035305 C13.6503164,0.473553295 13.4609624,0.308839105 13.2002747,0.185303463 C12.9395871,0.0617678211 12.7025983,0 11.991632,0 L1.99070571,0 Z M6.70678232,6.27972847 L2.55947877,10.4181725 C2.51208101,10.459351 2.48861912,10.5211189 2.48861912,10.5828867 C2.48861912,10.7270116 2.60687652,10.8297521 2.77276866,10.8297521 L11.1145365,10.8297521 C11.1861071,10.8297521 11.2569668,10.8093687 11.3043645,10.7681901 C11.4230959,10.6856272 11.4230959,10.5211189 11.3280634,10.4181725 L7.18075987,6.27972847 L7.15729798,6.2591392 C7.0892822,6.21013673 7.01060193,6.18419424 6.93381757,6.18419424 C6.85016053,6.18419424 6.76887338,6.21507815 6.70678232,6.27972847 Z" id="path-1"></path>
    </defs>
    <g id="airplay" stroke="none" stroke-width="1" fill="none" fill-rule="evenodd">
        <g transform="translate(0.000000, -5.000000)">
            <text id="AirPlay" font-family="PingFangTC-Medium, PingFang TC" font-size="16" font-weight="400" letter-spacing="0.2666667" fill="#FFFFFF">
                <tspan x="16.8735081" y="17">AirPlay</tspan>
            </text>
            <g transform="translate(0.000000, 6.039669)">
                <mask id="mask-2" fill="white">
                    <use xlink:href="#path-1"></use>
                </mask>
                <g id="Clip-2"></g>
                <polygon id="Fill-1" fill="#FFFFFF" mask="url(#mask-2)" points="-1.86747154 12.4958678 15.8735081 12.4958678 15.8735081 -1.6661157 -1.86747154 -1.6661157"></polygon>
            </g>
        </g>
    </g>
</svg>