<?xml version="1.0" encoding="UTF-8"?>
<svg width="30px" height="16px" viewBox="0 0 30 16" version="1.1" xmlns="http://www.w3.org/2000/svg" xmlns:xlink="http://www.w3.org/1999/xlink">
    <!-- Generator: Sketch 50.2 (55047) - http://www.bohemiancoding.com/sketch -->
    <title>BenQ-Logo</title>
    <desc>Created with Sketch.</desc>
    <defs></defs>
    <g id="BenQ-Logo" stroke="none" stroke-width="1" fill="none" fill-rule="evenodd">
        <g transform="translate(0.000000, 3.000000)" fill="#FFFFFF" fill-rule="nonzero">
            <path d="M10.2299927,2.05682686 C10.8497878,2.05682686 11.2911903,2.59622114 11.4146262,3.30862971 L9.04405151,3.30862971 C9.16748661,2.58604495 9.59493151,2.05682686 10.2299927,2.05682686 M10.2522368,0.0926154286 C8.29209641,0.0926154286 6.90202784,1.78712971 6.90202784,4.18387352 L6.90202784,4.43830686 C6.90202784,6.87067162 8.34705314,8.46341448 10.5819797,8.46341448 C11.0783397,8.46341448 12.2812922,8.46341448 13.423182,7.43042114 L13.423182,5.63922305 C12.4884726,6.4635821 11.8695487,6.58062019 11.0630736,6.58062019 C9.88934457,6.58062019 9.14088008,6.041224 8.99432824,4.80977543 L13.5322244,4.80977543 C13.5374571,4.68256114 13.5374571,4.55534495 13.5374571,4.43321638 C13.5850007,1.6548259 12.0771658,0.0926154286 10.2522368,0.0926154286" id="path8"></path>
            <path d="M16.052404,1.42074686 C16.703604,0.504794476 17.3360481,0.12314781 18.1673852,0.12314781 C19.1836579,0.12314781 20.5344718,0.830466857 20.5344718,3.19668019 L20.5344718,8.25478019 L18.4910228,8.25478019 L18.4910228,3.57323924 C18.4910228,2.4333859 18.0544179,1.97031924 17.4773673,1.97031924 C16.9718481,1.97031924 16.583222,2.29599352 16.052404,3.29845352 L16.052404,8.25478019 L14.0037207,8.25478019 L14.0037207,0.352135429 L16.052404,0.352135429 L16.052404,1.42074686" id="path10"></path>
            <path d="M2.00080335,6.4992021 L3.70011685,6.4992021 C4.12930542,6.4992021 4.52840011,6.32109924 4.52840011,5.67484305 C4.52840011,5.05402971 4.12930542,4.8504859 3.70011685,4.8504859 L2.00080335,4.8504859 L2.00080335,6.4992021 M2.0069111,3.34425067 L3.57013726,3.34425067 C3.89900909,3.34425067 4.3879544,3.328984 4.3879544,2.72852495 C4.3879544,2.18404305 3.92648746,2.09244781 3.57013726,2.09244781 L2.0069111,2.09244781 L2.0069111,3.34425067 M6.66257151,5.90383162 C6.66257151,6.47375829 6.48286947,7.21160971 5.89578702,7.74591733 C5.32571437,8.25478019 4.72816501,8.29039924 4.17728338,8.29039924 L0.0445878367,8.29039924 L0.0445878367,0.133324 L4.03160338,0.133324 C4.43942052,0.143502095 4.75477073,0.143502095 5.12289722,0.285982095 C5.76013886,0.535324952 6.44317886,1.02383448 6.44317886,2.18913162 C6.44317886,2.9880459 6.09904253,3.61394781 5.5481609,3.94979733 C5.73048008,4.06683543 5.89578702,4.16351924 6.0685111,4.35179924 C6.36990212,4.66220686 6.66257151,5.16598019 6.66257151,5.90383162" id="path12"></path>
            <path d="M25.7043754,6.10228876 C25.4252277,6.49411257 25.0370375,6.68239162 24.6183158,6.68239162 C24.0818285,6.68239162 23.6805534,6.39234019 23.3883207,5.88856495 C23.162386,5.49165162 23.0441844,4.97261257 23.0446195,4.4128621 C23.0446195,3.70045543 23.2456946,3.08472971 23.5627885,2.6572859 C23.8506603,2.24001829 24.169062,2.08735733 24.6183158,2.08735733 C24.9236342,2.08735733 25.2158669,2.16877733 25.4557599,2.38249924 C25.9006505,2.80485448 26.1841591,3.57323924 26.1841591,4.39250781 C26.1841591,5.0489421 26.0053305,5.69010971 25.7043754,6.10228876 M26.3324579,8.06650114 L26.3237338,8.03596876 C27.540644,7.53728305 28.3824489,6.15317448 28.3824489,4.27546971 C28.3824489,1.15613829 26.2888407,0.0519059048 24.6706554,0.0519059048 C22.7192391,0.0519059048 20.9296399,1.48690019 20.9296399,4.25511543 C20.9296399,6.78925352 22.5011542,8.45323638 24.6575705,8.46341448 C24.9759738,8.90612495 26.711924,10.6311697 29.3332962,9.65415257 L29.6516987,7.02842019 C28.3868097,8.27004495 26.6159664,8.16318495 26.3324579,8.06650114" id="path14"></path>
        </g>
    </g>
</svg>