<?xml version="1.0" encoding="UTF-8"?>
<svg width="248px" height="184px" viewBox="0 0 248 184" version="1.1" xmlns="http://www.w3.org/2000/svg" xmlns:xlink="http://www.w3.org/1999/xlink">
    <!-- Generator: Sketch 50.2 (55047) - http://www.bohemiancoding.com/sketch -->
    <title>bouns</title>
    <desc>Created with Sketch.</desc>
    <defs></defs>
    <g id="bouns" stroke="none" stroke-width="1" fill="none" fill-rule="evenodd">
        <g id="Group-10">
            <g>
                <g id="Group-14" transform="translate(60.000000, 18.000000)" stroke="#FFFFFF" stroke-width="2">
                    <rect id="Rectangle-4-Copy-3" x="1" y="1" width="74" height="135" rx="4"></rect>
                    <circle id="Oval-3" cx="38.5" cy="124.5" r="6.5"></circle>
                    <path d="M1,113.5 L75,113.5" id="Line-2" stroke-linecap="square"></path>
                </g>
                <g id="Group-20" transform="translate(79.000000, 31.000000)" stroke="#FFFFFF" stroke-width="2">
                    <circle id="Oval-3-Copy" cx="19.5" cy="19.5" r="19.5"></circle>
                    <circle id="Combined-Shape-Copy-3" cx="20" cy="15" r="7"></circle>
                    <path d="M31.9819842,31.9157714 C29.1865114,28.2423078 24.7910365,26 20,26 C14.9443168,26 10.3385305,28.4982744 7.58615043,32.5124928 L31.9819842,31.9157714 Z" id="Combined-Shape-Copy-4"></path>
                </g>
                <g id="Group-21" transform="translate(164.000000, 57.000000)" fill="#FFFFFF">
                    <rect id="Rectangle-9" x="0" y="8" width="20" height="4" rx="2"></rect>
                    <rect id="Rectangle-9" transform="translate(10.000000, 10.000000) rotate(-270.000000) translate(-10.000000, -10.000000) " x="0" y="8" width="20" height="4" rx="2"></rect>
                </g>
                <g id="Group-21-Copy" opacity="0.220990349" transform="translate(144.000000, 18.000000)" fill="#FFFFFF">
                    <rect id="Rectangle-9" x="0" y="4" width="10" height="2" rx="1"></rect>
                    <rect id="Rectangle-9" transform="translate(5.000000, 5.000000) rotate(-270.000000) translate(-5.000000, -5.000000) " x="0" y="4" width="10" height="2" rx="1"></rect>
                </g>
                <g id="Group-21-Copy-2" opacity="0.726619945" transform="translate(187.000000, 48.000000)" fill="#FFFFFF">
                    <rect id="Rectangle-9" x="0" y="4" width="10" height="2" rx="1"></rect>
                    <rect id="Rectangle-9" transform="translate(5.000000, 5.000000) rotate(-270.000000) translate(-5.000000, -5.000000) " x="0" y="4" width="10" height="2" rx="1"></rect>
                </g>
                <g id="Group-21-Copy-3" transform="translate(144.000000, 43.000000)" fill="#FFFFFF">
                    <rect id="Rectangle-9" x="0" y="4" width="16" height="2" rx="1"></rect>
                    <rect id="Rectangle-9" transform="translate(8.000000, 5.000000) rotate(-270.000000) translate(-8.000000, -5.000000) " x="0" y="4" width="16" height="2" rx="1"></rect>
                </g>
                <rect id="Rectangle-10" fill="#000000" x="67" y="84" width="63" height="36"></rect>
                <path d="M109.118468,104.072631 L94.7063824,112.745647 C93.853465,113.258923 92.7534688,112.970859 92.2494722,112.102239 C92.0861538,111.820766 92,111.499815 92,111.172872 L92,93.8268398 C92,92.817904 92.8031187,92 93.7938157,92 C94.1148478,92 94.4299973,92.0877398 94.7063824,92.254065 L109.118468,100.927081 C109.971386,101.440356 110.254242,102.560604 109.750245,103.429223 C109.596309,103.694526 109.378976,103.915861 109.118468,104.072631 Z" id="Triangle" fill="#FFFFFF"></path>
                <g id="icon/紅利" transform="translate(118.000000, 68.000000)">
                    <path d="M38,19 C38,29.4935417 29.4935417,38 19,38 C8.50645833,38 0,29.4935417 0,19 C0,8.50645833 8.50645833,0 19,0 C29.4935417,0 38,8.50645833 38,19" id="Fill-1" fill="#00BCE1"></path>
                    <path d="M19.996304,11.8330434 C19.773846,11.8330434 19.5974407,11.8427069 19.4881631,11.8547863 C14.8914777,12.2783705 14.6510669,15.4737738 14.6861919,16.4433467 L14.6893141,16.5657513 L14.6893141,19.2497934 C16.5212755,19.2489881 19.1853079,19.2328822 21.3388578,18.5379142 C23.9630819,17.6907458 24.3166731,16.3193316 24.3166731,15.0888436 C24.3166731,13.7480305 23.8701959,13.1786882 23.5345575,12.8670398 C22.5994532,11.9989338 20.9111139,11.8330434 19.996304,11.8330434 Z M14.6893141,32 L10.0059872,32 L10.0059872,16.6293694 C9.89436792,14.1208812 11.2860966,7.75987057 19.0346609,7.04557554 C19.4819186,6.99886853 23.8015071,6.6139384 26.6684838,9.27623759 C27.731599,10.2643323 29,12.0746313 29,15.0888436 C29,18.9832414 26.7762003,21.8460585 22.7376114,23.1490229 C19.9018569,24.0646412 16.6711419,24.0807471 14.6893141,24.0815524 L14.6893141,32 Z" id="Fill-3" fill="#FFFFFF"></path>
                </g>
                <rect id="Rectangle-4" x="0" y="0" width="248" height="184"></rect>
            </g>
        </g>
    </g>
</svg>