<?xml version="1.0" encoding="UTF-8"?>
<svg width="482px" height="309px" viewBox="0 0 482 309" version="1.1" xmlns="http://www.w3.org/2000/svg" xmlns:xlink="http://www.w3.org/1999/xlink">
    <!-- Generator: Sketch 50.2 (55047) - http://www.bohemiancoding.com/sketch -->
    <title>cencal_online</title>
    <desc>Created with Sketch.</desc>
    <defs>
        <linearGradient x1="50%" y1="100%" x2="50%" y2="3.061617e-15%" id="linearGradient-1">
            <stop stop-color="#000000" stop-opacity="0" offset="0%"></stop>
            <stop stop-color="#000000" offset="100%"></stop>
        </linearGradient>
    </defs>
    <g id="cencal_online" stroke="none" stroke-width="1" fill="none" fill-rule="evenodd">
        <g id="隨時取消">
            <g>
                <g id="labtab" transform="translate(103.000000, 0.000000)">
                    <path d="M65,171.888889 C53.3931904,171.888889 35.982976,171.888889 12.7693567,171.888889 C6.25913188,171.888889 0.93258427,166.854597 0.93258427,160.701575 C0.93258427,143.721412 0.93258427,132.283127 0.93258427,126.386718 M0.93258427,118 C0.93258427,94.2638476 0.93258427,58.6596191 0.93258427,11.1873143 C0.93258427,5.03568985 6.25913188,0 12.7693567,0 L259.792441,0 C266.302666,0 271.629213,5.03568985 271.629213,11.1873143 C271.629213,57.7387359 271.629213,89.6762978 271.629213,107" id="Stroke-1" stroke="#FFFFFF" stroke-width="2"></path>
                    <path d="M81.5,171.5 L229.908221,171.5" id="Line-5" stroke="#FFFFFF" stroke-width="2" stroke-linecap="square"></path>
                    <path d="M81,151.444444 L233.154321,151.444444 L238,151.444444 M254.078652,108 L254.078652,20 L19,20 L19,117 M19,127 L19,151.444444 L65,151.444444" id="Stroke-3" stroke="#FFFFFF" stroke-width="2"></path>
                    <path d="M139.842697,10.1118161 C139.842697,11.9728865 138.248418,13.4814815 136.281644,13.4814815 C134.31487,13.4814815 132.719101,11.9728865 132.719101,10.1118161 C132.719101,8.25074562 134.31487,6.74074074 136.281644,6.74074074 C138.248418,6.74074074 139.842697,8.25074562 139.842697,10.1118161" id="Fill-5" fill="#FFFFFF"></path>
                </g>
                <g id="iPad" transform="translate(92.500000, 181.000000) rotate(-270.000000) translate(-92.500000, -181.000000) translate(27.500000, 88.500000)" stroke="#FFFFFF">
                    <rect stroke-width="2" x="1" y="1" width="128" height="183" rx="7.8"></rect>
                    <rect id="Screen" stroke-width="2" x="9" y="17" width="112" height="149.964286"></rect>
                    <circle id="Home-Button" fill="#FFFFFF" cx="65" cy="176" r="3.5"></circle>
                </g>
                <g id="iPhone" transform="translate(340.000000, 107.000000)" stroke="#FFFFFF">
                    <rect stroke-width="2" x="1" y="1" width="62" height="129" rx="9.450001"></rect>
                    <circle id="Home-Button" fill="#FFFFFF" cx="32" cy="121.989726" r="3.5"></circle>
                    <rect id="Screen" stroke-width="2" x="6" y="17" width="52" height="97"></rect>
                    <rect id="Speaker" stroke-width="3.15000033" fill="#857C82" x="29.5750002" y="9.57500017" width="6.84999967" height="1" rx="0.5"></rect>
                    <circle id="Camera" stroke-width="0.900000095" fill="#FFFFFF" cx="24.5" cy="8.5" r="1.04999995"></circle>
                </g>
                <g id="取消方案" transform="translate(205.000000, 69.000000)">
                    <rect id="Rectangle-5-Copy" stroke="#FFFFFF" stroke-width="2" x="1" y="1" width="67.25" height="32" rx="8"></rect>
                    <path d="M17.972,8.834 L26.648,8.834 L26.648,9.824 L33.704,9.824 L33.704,11.39 C33.308,14.612 32.534,17.366 31.364,19.67 C32.192,21.074 33.218,22.334 34.424,23.486 L33.272,24.818 C32.156,23.666 31.22,22.46 30.446,21.236 C29.51,22.64 28.43,23.828 27.17,24.818 L26,23.486 C27.404,22.388 28.556,21.074 29.492,19.562 C28.214,17.078 27.458,14.378 27.224,11.462 L26.522,11.462 L26.522,10.436 L25.424,10.436 L25.424,24.818 L23.75,24.818 L23.75,22.046 C21.986,22.424 20.132,22.748 18.188,23.018 L17.774,21.326 C18.278,21.272 18.764,21.218 19.268,21.146 L19.268,10.436 L17.972,10.436 L17.972,8.834 Z M28.79,11.462 C29.006,13.784 29.528,15.908 30.392,17.834 C31.22,15.962 31.796,13.838 32.102,11.462 L28.79,11.462 Z M20.942,20.894 C21.896,20.732 22.832,20.552 23.75,20.354 L23.75,18.266 L20.942,18.266 L20.942,20.894 Z M20.942,16.718 L23.75,16.718 L23.75,14.36 L20.942,14.36 L20.942,16.718 Z M20.942,12.812 L23.75,12.812 L23.75,10.436 L20.942,10.436 L20.942,12.812 Z M38.978,17.564 L40.49,18.14 C39.626,20.444 38.654,22.622 37.61,24.656 L36.026,23.954 C37.142,21.866 38.132,19.742 38.978,17.564 Z M37.574,8.42 C38.816,9.32 39.86,10.202 40.724,11.102 L39.5,12.326 C38.762,11.48 37.718,10.58 36.368,9.608 L37.574,8.42 Z M37.07,12.632 C38.24,13.532 39.23,14.432 40.04,15.35 L38.816,16.556 C38.096,15.728 37.106,14.81 35.846,13.82 L37.07,12.632 Z M45.674,8.258 L47.312,8.258 L47.312,12.938 L51.362,12.938 L51.362,23.09 C51.362,24.206 50.696,24.764 49.4,24.764 L47.366,24.764 L46.898,23.126 C47.618,23.18 48.266,23.216 48.878,23.216 C49.436,23.216 49.724,22.982 49.724,22.514 L49.724,20.318 C47.798,20.678 45.764,21.002 43.622,21.254 L43.244,19.652 C45.476,19.472 47.636,19.184 49.724,18.824 L49.724,14.486 L43.352,14.486 L43.352,15.98 C44.594,16.106 45.53,16.214 46.16,16.286 C46.826,16.394 47.672,16.538 48.68,16.736 L48.122,18.068 C47.204,17.87 46.268,17.708 45.332,17.582 C44.684,17.474 44.036,17.402 43.352,17.348 L43.352,17.402 C43.316,20.48 42.704,22.964 41.516,24.872 L40.202,23.684 C41.21,22.064 41.714,20.012 41.75,17.51 L41.75,12.938 L45.674,12.938 L45.674,8.258 Z M42.2,8.708 C42.866,9.644 43.514,10.652 44.126,11.75 L42.776,12.416 C42.164,11.3 41.516,10.274 40.814,9.374 L42.2,8.708 Z M50.786,8.708 L52.154,9.356 C51.578,10.436 50.858,11.48 49.994,12.488 L48.68,11.822 C49.562,10.778 50.264,9.734 50.786,8.708 Z" id="取消" fill="#FFFFFF"></path>
                </g>
                <g id="hand-copy" transform="translate(72.000000, 154.000000)" stroke="#FFFFFF" stroke-width="2">
                    <path d="M292.630179,12.2285104 L292.630179,36.0619327 C290.060812,33.4991991 287.82952,32.2178324 285.936302,32.2178324 C283.096475,32.2178324 280.662338,32.4100374 279.242424,33.7554725 C278.295815,34.6524293 280.121418,35.9978644 284.719233,37.7917779 C288.911358,40.7389215 291.277881,43.0453817 291.8188,44.7111586 C292.630179,47.2098238 294.050093,52.2071543 299.729746,52.9759744 C302.569573,53.1041111 304.124717,52.719701 304.395176,51.8227443 C305.206555,51.3101975 306.153164,51.0539242 307.235003,51.0539242 C308.316842,51.0539242 309.331066,51.3101975 310.277675,51.8227443 C312.170893,52.8478377 313.996496,52.5915643 315.754484,51.0539242 C317.512472,49.516284 318.59431,46.8254138 319,42.9813134 L319,29.1425521 C318.72954,26.8360918 317.985776,25.6828617 316.768707,25.6828617 C314.943105,25.6828617 313.320346,26.8360918 312.508967,29.1425521 C311.697588,31.4490123 312.711812,24.5296316 310.277675,24.5296316 C308.654917,24.5296316 307.235003,25.8109984 306.017934,28.373732 L305.4094,25.2984517 C305.003711,24.2733582 304.259946,23.7608115 303.178108,23.7608115 C301.555349,23.7608115 299.729746,26.2594768 299.729746,26.8360918 C299.729746,27.2205019 299.729746,22.2231714 299.729746,11.8441004 C299.459287,9.28136679 298.309833,8 296.281385,8 C293.982478,8.12813668 292.765409,9.53764015 292.630179,12.2285104 Z" id="Path-3" fill="#000000"></path>
                    <path d="M13.6301793,15.2285104 L13.6301793,39.0619327 C11.0608122,36.4991991 8.82951969,35.2178324 6.93630179,35.2178324 C4.09647495,35.2178324 1.66233766,35.4100374 0.242424242,36.7554725 C-0.704184704,37.6524293 1.12141826,38.9978644 5.71923315,40.7917779 C9.91135848,43.7389215 12.2778808,46.0453817 12.8188002,47.7111586 C13.6301793,50.2098238 15.0500928,55.2071543 20.7297464,55.9759744 C23.5695733,56.1041111 25.1247166,55.719701 25.3951763,54.8227443 C26.2065553,54.3101975 27.1531643,54.0539242 28.2350031,54.0539242 C29.3168419,54.0539242 30.3310658,54.3101975 31.2776747,54.8227443 C33.1708926,55.8478377 34.9964956,55.5915643 36.7544836,54.0539242 C38.5124717,52.516284 39.5943105,49.8254138 40,45.9813134 L40,32.1425521 C39.7295403,29.8360918 38.9857761,28.6828617 37.7687075,28.6828617 C35.9431045,28.6828617 34.3203463,29.8360918 33.5089672,32.1425521 C32.6975881,34.4490123 33.711812,27.5296316 31.2776747,27.5296316 C29.6549165,27.5296316 28.2350031,28.8109984 27.0179344,31.373732 L26.4094001,28.2984517 C26.0037106,27.2733582 25.2599464,26.7608115 24.1781076,26.7608115 C22.5553494,26.7608115 20.7297464,29.2594768 20.7297464,29.8360918 C20.7297464,30.2205019 20.7297464,25.2231714 20.7297464,14.8441004 C20.4592867,12.2813668 19.309833,11 17.2813853,11 C14.9824778,11.1281367 13.7654092,12.5376401 13.6301793,15.2285104 Z" id="Path-3-Copy" fill="#000000"></path>
                    <path d="M302.799403,16.5824178 C304.768032,14.8351782 306,12.3387867 306,9.56710961 C306,4.28334087 301.522847,0 296,0 C290.477153,0 286,4.28334087 286,9.56710961 C286,12.567851 287.444014,15.2459249 289.703502,17" id="Oval-2" fill="url(#linearGradient-1)"></path>
                    <path d="M23.7994028,19.5824178 C25.7680317,17.8351782 27,15.3387867 27,12.5671096 C27,7.28334087 22.5228475,3 17,3 C11.4771525,3 7,7.28334087 7,12.5671096 C7,15.567851 8.44401409,18.2459249 10.7035022,20" id="Oval-2-Copy" fill="url(#linearGradient-1)"></path>
                </g>
                <path d="M63.3146845,61.8346982 L69.8961226,55.2529857 C70.3050202,54.8444199 70.3050202,54.1815036 69.8961226,53.7729378 C69.4872249,53.3640231 68.825034,53.3640231 68.4161363,53.7729378 L61.8346982,60.3546503 L55.2529112,53.7729378 C54.8440136,53.3640231 54.1818227,53.3640231 53.772925,53.7729378 C53.3640273,54.1815036 53.3640273,54.8444199 53.772925,55.2529857 L60.354712,61.8346982 L53.772925,68.4164107 C53.3640273,68.8249765 53.3640273,69.4878929 53.772925,69.8964587 C53.9773738,70.1005671 54.2453204,70.2027958 54.5129181,70.2027958 C54.7805158,70.2027958 55.0484624,70.1005671 55.2529112,69.8961098 L61.8346982,63.3143973 L68.4161363,69.8961098 C68.6205851,70.1005671 68.8885317,70.2027958 69.1561294,70.2027958 C69.4237271,70.2027958 69.6916737,70.1005671 69.8961226,69.8961098 C70.3050202,69.487544 70.3050202,68.8246276 69.8961226,68.4160618 L63.3146845,61.8346982 Z" id="Shape" fill="#FFFFFF" fill-rule="nonzero" transform="translate(61.834524, 61.834524) rotate(-315.000000) translate(-61.834524, -61.834524) "></path>
                <path d="M432.314684,85.8346982 L438.896123,79.2529857 C439.30502,78.8444199 439.30502,78.1815036 438.896123,77.7729378 C438.487225,77.3640231 437.825034,77.3640231 437.416136,77.7729378 L430.834698,84.3546503 L424.252911,77.7729378 C423.844014,77.3640231 423.181823,77.3640231 422.772925,77.7729378 C422.364027,78.1815036 422.364027,78.8444199 422.772925,79.2529857 L429.354712,85.8346982 L422.772925,92.4164107 C422.364027,92.8249765 422.364027,93.4878929 422.772925,93.8964587 C422.977374,94.1005671 423.24532,94.2027958 423.512918,94.2027958 C423.780516,94.2027958 424.048462,94.1005671 424.252911,93.8961098 L430.834698,87.3143973 L437.416136,93.8961098 C437.620585,94.1005671 437.888532,94.2027958 438.156129,94.2027958 C438.423727,94.2027958 438.691674,94.1005671 438.896123,93.8961098 C439.30502,93.487544 439.30502,92.8246276 438.896123,92.4160618 L432.314684,85.8346982 Z" id="Shape-Copy-2" fill="#FFFFFF" fill-rule="nonzero" transform="translate(430.834524, 85.834524) rotate(-315.000000) translate(-430.834524, -85.834524) "></path>
                <path d="M22.3146845,33.8346982 L28.8961226,27.2529857 C29.3050202,26.8444199 29.3050202,26.1815036 28.8961226,25.7729378 C28.4872249,25.3640231 27.825034,25.3640231 27.4161363,25.7729378 L20.8346982,32.3546503 L14.2529112,25.7729378 C13.8440136,25.3640231 13.1818227,25.3640231 12.772925,25.7729378 C12.3640273,26.1815036 12.3640273,26.8444199 12.772925,27.2529857 L19.354712,33.8346982 L12.772925,40.4164107 C12.3640273,40.8249765 12.3640273,41.4878929 12.772925,41.8964587 C12.9773738,42.1005671 13.2453204,42.2027958 13.5129181,42.2027958 C13.7805158,42.2027958 14.0484624,42.1005671 14.2529112,41.8961098 L20.8346982,35.3143973 L27.4161363,41.8961098 C27.6205851,42.1005671 27.8885317,42.2027958 28.1561294,42.2027958 C28.4237271,42.2027958 28.6916737,42.1005671 28.8961226,41.8961098 C29.3050202,41.487544 29.3050202,40.8246276 28.8961226,40.4160618 L22.3146845,33.8346982 Z" id="Shape-Copy" fill="#FFFFFF" fill-rule="nonzero" opacity="0.682310268" transform="translate(20.834524, 33.834524) rotate(-315.000000) translate(-20.834524, -33.834524) "></path>
                <path d="M471.314684,56.8346982 L477.896123,50.2529857 C478.30502,49.8444199 478.30502,49.1815036 477.896123,48.7729378 C477.487225,48.3640231 476.825034,48.3640231 476.416136,48.7729378 L469.834698,55.3546503 L463.252911,48.7729378 C462.844014,48.3640231 462.181823,48.3640231 461.772925,48.7729378 C461.364027,49.1815036 461.364027,49.8444199 461.772925,50.2529857 L468.354712,56.8346982 L461.772925,63.4164107 C461.364027,63.8249765 461.364027,64.4878929 461.772925,64.8964587 C461.977374,65.1005671 462.24532,65.2027958 462.512918,65.2027958 C462.780516,65.2027958 463.048462,65.1005671 463.252911,64.8961098 L469.834698,58.3143973 L476.416136,64.8961098 C476.620585,65.1005671 476.888532,65.2027958 477.156129,65.2027958 C477.423727,65.2027958 477.691674,65.1005671 477.896123,64.8961098 C478.30502,64.487544 478.30502,63.8246276 477.896123,63.4160618 L471.314684,56.8346982 Z" id="Shape-Copy-3" fill="#FFFFFF" fill-rule="nonzero" opacity="0.682310268" transform="translate(469.834524, 56.834524) rotate(-315.000000) translate(-469.834524, -56.834524) "></path>
                <g id="mouse" transform="translate(189.000000, 202.000000)">
                    <rect id="Rectangle-3" fill="#000000" x="32" y="47" width="39" height="57" rx="19.5"></rect>
                    <g transform="translate(32.000000, 47.000000)" fill="#FFFFFF" fill-rule="nonzero" id="Shape">
                        <path d="M19.0000759,0 C8.52338577,0 0,8.39068748 0,18.7041194 L0,41.2958806 C0,51.609462 8.52338577,60 19.0000759,60 C29.4767661,60 38,51.6093125 38,41.2958806 L38,18.7041194 C38,8.39068748 29.4767661,2.12421999e-15 19.0000759,0 Z M35.7223596,18.7041194 L35.7223596,18.9990408 C30.8173852,21.537488 25.3319161,22.9276399 19.758682,23.0434858 L19.758682,16.7900447 C21.3659369,16.4465427 22.5736937,15.0360617 22.5736937,13.3524832 L22.5736937,8.66378505 C22.5736937,6.98020653 21.3659369,5.56972558 19.758682,5.22622355 L19.758682,2.25981888 C28.6287246,2.65175201 35.7223596,9.87740256 35.7223596,18.7041194 Z M19.0000759,6.64044146 C20.1332779,6.64044146 21.0554186,7.54807608 21.0554186,8.66378505 L21.0554186,13.3526327 C21.0554186,14.4681922 20.1334298,15.3759763 19.0000759,15.3759763 C17.8667221,15.3759763 16.9447333,14.4683417 16.9447333,13.3526327 L16.9447333,8.66378505 C16.9447333,7.54822556 17.8668739,6.64044146 19.0000759,6.64044146 Z M18.2404069,2.25996836 L18.2404069,5.2265225 C16.6337594,5.57047298 15.4264582,6.98065497 15.4264582,8.66378505 L15.4264582,13.3526327 C15.4264582,15.0357628 16.6337594,16.4459448 18.2404069,16.7898952 L18.2404069,23.0436353 C12.667932,22.9277893 7.18276665,21.537488 2.27779221,18.9988914 L2.27779221,18.7042689 C2.27764036,9.87770152 9.37097167,2.65234993 18.2404069,2.25996836 Z M19.0000759,57.7579691 C9.77927667,57.7579691 2.27764036,50.3731237 2.27764036,41.2960301 L2.27764036,20.6787329 C7.4425695,23.2135926 13.1876896,24.5472415 18.9994686,24.5472415 C24.8120068,24.5472415 30.5574305,23.2137421 35.7223596,20.6787329 L35.7223596,41.2958806 C35.7223596,50.3731237 28.2208752,57.7579691 19.0000759,57.7579691 Z"></path>
                    </g>
                    <path d="" id="Path-2" stroke="#979797"></path>
                    <path d="" id="Path-4" stroke="#979797"></path>
                    <g id="mouse-(1)" transform="translate(29.000000, 0.000000)" fill="#FFFFFF" fill-rule="nonzero">
                        <path d="M23.0020702,48 L23.4106304,36.4024583 C23.4106304,33.177173 22.2420211,31.994381 19.0394825,31.994381 L6.60035394,31.994381 C4.92097394,31.994381 2.12546531,31.3453907 2.12546531,27.4935909 C2.12546531,23.641791 4.92097394,22.9928007 6.60035394,22.9928007 L39.3287362,22.9928007 C42.8437176,22.9928007 45,21.5346795 45,17.9947322 C45,14.4547849 42.8437176,12.9966637 39.3287362,12.9966637 L27.2996888,12.9966637 C25,12.9966637 23.4106304,10.4428446 23.4106304,9.08586479 L23.4106304,1.78964004 C23.4106304,0.806321335 23.3242814,0 22.3478977,0 C21.371514,0 21.2851651,0.806321335 21.2851651,1.78964004 L21.2851651,9.04653205 C21.2851651,12.3701493 23.9799841,15.0841089 27.2801611,15.0841089 L39.3092085,15.0841089 C40.8714225,15.0841089 42.8745347,15.761194 42.8745347,17.9553995 C42.8745347,20.1496049 40.8909501,20.8266901 39.3092085,20.8266901 L6.60035394,20.8266901 C2.96820651,20.8266901 0,23.8159789 0,27.4739245 C0,31.1318701 2.94867883,34.1211589 6.60035394,34.1211589 L19.0394825,34.1211589 C20.2892537,34.1211589 21.3046927,35.1438104 21.3046927,36.4024583 L20.8961326,48 L23.0020702,48 Z" id="Shape"></path>
                    </g>
                    <circle id="Oval" stroke="#FFFFFF" stroke-width="2" fill="#000000" cx="51" cy="34" r="4"></circle>
                </g>
                <path d="" id="Path-5" stroke="#979797"></path>
                <g id="Group-5" transform="translate(194.000000, 172.000000)" stroke="#FFFFFF" stroke-width="2">
                    <rect id="Rectangle-5" x="1" y="24" width="88" height="5"></rect>
                    <path d="M20,0 L20,14.0356688 C19.037037,20.6785563 14.7037037,24 7,24" id="Path-6"></path>
                    <path d="M79,0 L79,14.0356688 C78.037037,20.6785563 73.7037037,24 66,24" id="Path-6-Copy" transform="translate(72.500000, 12.000000) scale(-1, 1) translate(-72.500000, -12.000000) "></path>
                </g>
            </g>
        </g>
    </g>
</svg>