<?xml version="1.0" encoding="UTF-8"?>
<svg width="105px" height="16px" viewBox="0 0 105 16" version="1.1" xmlns="http://www.w3.org/2000/svg" xmlns:xlink="http://www.w3.org/1999/xlink">
    <!-- Generator: Sketch 50.2 (55047) - http://www.bohemiancoding.com/sketch -->
    <title>chromecast</title>
    <desc>Created with Sketch.</desc>
    <defs></defs>
    <g id="Page-1" stroke="none" stroke-width="1" fill="none" fill-rule="evenodd">
        <g id="index-rwd" transform="translate(-132.000000, -1509.000000)" fill="#FFFFFF" fill-rule="nonzero">
            <g id="logo-part" transform="translate(40.000000, 1485.000000)">
                <g id="chromecast" transform="translate(92.000000, 24.000000)">
                    <path d="M0,10.1887569 C0,6.95164157 2.1668356,4.47628847 5.23616461,4.47628847 C7.67403203,4.47628847 9.02777215,5.99981293 9.66065275,7.52333739 L7.94506386,8.38088111 C7.49381715,7.14320456 6.50050679,6.38144233 5.14676667,6.38144233 C3.52199473,6.38144233 1.98662072,7.90496679 1.98662072,10.286035 C1.98662072,12.5713217 3.52199473,14.1906276 5.14676667,14.1906276 C6.59132374,14.1906276 7.5846341,13.4288654 8.12669775,12.1911889 L9.84228664,12.9529511 C9.21082506,14.4764755 7.76626799,16 5.32840057,16 C2.1668356,15.9027219 6.4529322e-15,13.4258722 6.4529322e-15,10.1887569 Z M13.0918305,4.85642129 L13.0010136,6.37994575 L13.0918305,6.37994575 C13.6338942,5.42811711 14.8968174,4.57057338 16.3413744,4.57057338 C18.9594567,4.57057338 20.2237989,6.37994575 20.2237989,9.04536526 L20.2237989,15.6153774 L18.3279951,15.6153774 L18.3279951,9.33270976 C18.3279951,7.14320456 17.2452868,6.38144233 15.8007298,6.38144233 C14.1759578,6.38144233 13.0918305,8.00074829 13.0918305,9.71433916 L13.0918305,15.6183706 L11.1960268,15.6183706 L11.1960268,0 L13.0918305,0 L13.0918305,4.85642129 Z M22.2104196,15.616874 L22.2104196,4.85642129 L24.0154064,4.85642129 L24.0154064,6.57001216 L24.1062234,6.57001216 C24.5574701,5.33233561 26.0020272,4.57057338 27.0861545,4.57057338 C27.7176161,4.57057338 28.0794648,4.66635488 28.5307115,4.85642129 L27.808433,6.76007857 C27.5374012,6.66429707 27.1769714,6.57001216 26.8151226,6.57001216 C25.5507805,6.57001216 24.1970403,7.71190721 24.1970403,9.71284258 L24.1970403,15.616874 L22.2104196,15.616874 Z M39.0030407,10.1887569 C39.0030407,13.4258722 36.8362051,15.9012253 33.7668761,15.9012253 C30.6975471,15.9012253 28.5307115,13.4258722 28.5307115,10.1887569 C28.5307115,6.95164157 30.6975471,4.47628847 33.7668761,4.47628847 C36.8362051,4.47628847 39.0030407,6.95164157 39.0030407,10.1887569 Z M37.107237,10.1887569 C37.107237,7.7134038 35.482465,6.28416425 33.7668761,6.28416425 C32.0512872,6.28416425 30.4265153,7.71190721 30.4265153,10.1887569 C30.4265153,12.6656066 32.0512872,14.0933495 33.7668761,14.0933495 C35.482465,14.0933495 37.107237,12.66411 37.107237,10.1887569 Z M40.5384148,4.85642129 L42.3434016,4.85642129 L42.3434016,6.37994575 L42.4342185,6.37994575 C42.9762822,5.33233561 44.3300223,4.57057338 45.5943645,4.57057338 C47.2191364,4.57057338 48.3032637,5.33233561 48.8439084,6.66579366 C49.5661869,5.42811711 50.8305291,4.57057338 52.3644841,4.57057338 C54.8023515,4.57057338 55.9758767,6.37994575 55.9758767,9.04536526 L55.9758767,15.6153774 L53.989256,15.6153774 L53.989256,9.33270976 C53.989256,7.14320456 53.1761606,6.38144233 51.7316035,6.38144233 C50.1962295,6.38144233 49.1135212,8.00074829 49.1135212,9.71433916 L49.1135212,15.6183706 L47.2177174,15.6183706 L47.2177174,9.33270976 C47.2177174,7.14320456 46.4046219,6.38144233 44.9600649,6.38144233 C43.4246909,6.38144233 42.3419826,8.00074829 42.3419826,9.71433916 L42.3419826,15.6183706 L40.4461788,15.6183706 L40.4461788,4.85791787 L40.5384148,4.85791787 L40.5384148,4.85642129 Z M57.3310359,10.1887569 C57.3310359,7.14170798 59.3176566,4.47628847 62.2961687,4.47628847 C65.2760997,4.47628847 67.2613014,6.76157516 67.2613014,10.1887569 L67.2613014,10.5688897 L59.2254206,10.5688897 C59.3162376,12.8541764 60.8501926,14.091853 62.4749645,14.091853 C63.5576728,14.091853 64.7326171,13.6159386 65.2732617,12.2824806 L66.9888506,13.0442428 C66.357389,14.5677673 64.9128319,15.9955102 62.5643625,15.9955102 C59.4070545,15.9027219 57.3310359,13.4258722 57.3310359,10.1887569 Z M62.2961687,6.37994575 C60.8516116,6.37994575 59.7689033,7.42755589 59.4070545,8.95108035 L65.2760997,8.95108035 C65.1852828,7.99925171 64.4630043,6.37994575 62.2961687,6.37994575 Z M68.3454287,10.1887569 C68.3454287,6.95164157 70.5122643,4.47628847 73.5815934,4.47628847 C76.0194608,4.47628847 77.3732009,5.99981293 78.0060815,7.52333739 L76.2904926,8.28509962 C75.8392459,7.04742307 74.8459355,6.28566084 73.4921954,6.28566084 C71.8674235,6.28566084 70.3320495,7.8091853 70.3320495,10.1902535 C70.3320495,12.4755402 71.8674235,14.0948461 73.4921954,14.0948461 C74.9367525,14.0948461 75.9300628,13.3330839 76.4721265,12.0954074 L78.1877154,12.8571696 C77.5562538,14.380694 76.1116967,15.9042185 73.6738293,15.9042185 C70.5122643,15.9027219 68.3454287,13.4258722 68.3454287,10.1887569 Z M79.1796067,12.3797587 C79.1796067,9.99869049 81.2556254,8.66672902 83.6040949,8.66672902 C84.957835,8.66672902 85.9511453,9.04686185 86.3129941,9.33270976 L86.3129941,8.95108035 C86.3129941,7.33177439 85.0486519,6.37994575 83.6949118,6.37994575 C82.6122035,6.37994575 81.6188932,6.95164157 81.2570444,7.90347021 L79.5414555,7.14170798 C79.9018853,6.18987934 81.0768295,4.57057338 83.6949118,4.57057338 C86.1327792,4.57057338 88.2087979,6.09409784 88.2087979,9.14114676 L88.2087979,15.6153774 L86.4038111,15.6153774 L86.4038111,14.091853 L86.3129941,14.091853 C85.7709305,14.9493967 84.6882222,15.9012253 82.9726333,15.9012253 C80.8951956,15.9027219 79.1796067,14.5692639 79.1796067,12.3797587 Z M86.3129941,10.9505191 C86.3129941,10.9505191 85.4998986,10.2845384 83.8751267,10.2845384 C81.888506,10.2845384 81.0768295,11.4264334 81.0768295,12.3797587 C81.0768295,13.5216537 82.1595378,14.0933495 83.1528482,14.0933495 C84.7776201,14.0933495 86.3129941,12.7598915 86.3129941,10.9505191 Z M89.3823231,12.855673 L91.097912,12.0939108 C91.6399757,13.4273688 92.633286,14.0933495 93.8068113,14.0933495 C94.9803365,14.0933495 95.793432,13.5216537 95.793432,12.5698251 C95.793432,11.9981293 95.5224002,11.42793 94.4396919,11.1420821 L92.3636732,10.6661678 C91.4611798,10.3803199 89.654774,9.61855767 89.654774,7.71490038 C89.654774,5.8112431 91.5505777,4.57206997 93.6265964,4.57206997 C95.3421853,4.57206997 96.8761403,5.42961369 97.5090209,7.04742307 L95.8842489,7.8091853 C95.5238192,6.76157516 94.5305088,6.38144233 93.5371985,6.38144233 C92.4544902,6.38144233 91.5505777,6.85735666 91.5505777,7.71490038 C91.5505777,8.38088111 92.0926414,8.76251052 92.9043179,8.95257693 L94.8909386,9.42849125 C96.8775593,9.90440557 97.6892358,11.2378636 97.6892358,12.5713217 C97.6892358,14.474979 96.0644638,15.9042185 93.7174133,15.9042185 C91.3703629,15.9042185 89.9243868,14.3791975 89.3823231,12.855673 Z M100.216501,12.2839772 L100.216501,6.66579366 L98.4115143,6.66579366 L98.4115143,4.85642129 L100.216501,4.85642129 L100.216501,1.61930596 L102.112305,1.61930596 L102.112305,4.85642129 L104.550172,4.85642129 L104.550172,6.66579366 L102.112305,6.66579366 L102.112305,12.0939108 C102.112305,13.3315873 102.563552,13.8075016 103.466045,13.8075016 C103.827894,13.8075016 104.097507,13.8075016 104.368538,13.6174352 L105,15.3310261 C104.548753,15.5210925 104.097507,15.616874 103.464626,15.616874 C101.390026,15.7111589 100.216501,14.4734824 100.216501,12.2839772 Z" id="Shape"></path>
                </g>
            </g>
        </g>
    </g>
</svg>