<?xml version="1.0" encoding="UTF-8"?>
<svg width="72px" height="50px" viewBox="0 0 72 50" version="1.1" xmlns="http://www.w3.org/2000/svg" xmlns:xlink="http://www.w3.org/1999/xlink">
    <!-- Generator: Sketch 50.2 (55047) - http://www.bohemiancoding.com/sketch -->
    <title>labtab</title>
    <desc>Created with Sketch.</desc>
    <defs></defs>
    <g id="Page-1" stroke="none" stroke-width="1" fill="none" fill-rule="evenodd">
        <g id="index01" transform="translate(-883.000000, -1953.000000)">
            <g id="隨時隨地盡享影音樂趣" transform="translate(811.000000, 1781.000000)">
                <g id="Group-4">
                    <g>
                        <g id="labtab" transform="translate(72.000000, 173.000000)">
                            <path d="M64.4575891,45.3333333 L8.35139964,45.3333333 C6.87273658,45.3333333 5.66292135,44.0056081 5.66292135,42.3828329 L5.66292135,2.95050047 C5.66292135,1.32809403 6.87273658,0 8.35139964,0 L64.4575891,0 C65.9362522,0 67.1460674,1.32809403 67.1460674,2.95050047 L67.1460674,42.3828329 C67.1460674,44.0056081 65.9362522,45.3333333 64.4575891,45.3333333 Z" id="Stroke-1" stroke="#FFFFFF"></path>
                            <polygon id="Stroke-3" stroke="#FFFFFF" stroke-width="0.5" points="9.70786517 40 63.1011236 40 63.1011236 5.33333333 9.70786517 5.33333333"></polygon>
                            <path d="M37.2134831,2.66685259 C37.2134831,3.15768435 36.8513756,3.55555556 36.4046636,3.55555556 C35.9579515,3.55555556 35.5955056,3.15768435 35.5955056,2.66685259 C35.5955056,2.17602082 35.9579515,1.77777778 36.4046636,1.77777778 C36.8513756,1.77777778 37.2134831,2.17602082 37.2134831,2.66685259" id="Fill-5" fill="#FFFFFF"></path>
                            <path d="M0,45.3333333 L72,45.3333333 C72,45.3333333 69.2033174,47.9054682 64.4084778,48 L8.31063081,48 C8.31063081,48 4.15514786,47.9489766 0,45.3333333 Z" id="Stroke-7" stroke="#FFFFFF" stroke-linecap="round" stroke-linejoin="round"></path>
                            <path d="M30.741573,45.3333333 L42.871803,45.3333333 C42.871803,45.3333333 42.9796861,46.6016249 42.1507071,47.1100523 L31.9501285,47.1100523 C31.9501285,47.1100523 30.741573,47.2150701 30.741573,45.3333333 Z" id="Stroke-9" stroke="#FFFFFF" stroke-width="2" stroke-linecap="round" stroke-linejoin="round"></path>
                        </g>
                    </g>
                </g>
            </g>
        </g>
    </g>
</svg>