<?xml version="1.0" encoding="UTF-8"?>
<svg width="91px" height="25px" viewBox="0 0 91 25" version="1.1" xmlns="http://www.w3.org/2000/svg" xmlns:xlink="http://www.w3.org/1999/xlink">
    <!-- Generator: Sketch 50.2 (55047) - http://www.bohemiancoding.com/sketch -->
    <title>logo</title>
    <desc>Created with Sketch.</desc>
    <defs></defs>
    <g id="Page-1" stroke="none" stroke-width="1" fill="none" fill-rule="evenodd">
        <g id="index-最酷的一天01" transform="translate(-466.000000, -2100.000000)" fill="#FFFFFF" fill-rule="nonzero">
            <g id="logo" transform="translate(466.000000, 2100.000000)">
                <path d="M75.2173913,0.217391304 C84.1304348,0.217391304 90.1086957,3.91304348 90.1086957,12.6086957 C90.1086957,21.4130435 84.1304348,25 75.2173913,25 C66.3043478,25 60.326087,21.3043478 60.326087,12.6086957 C60.326087,3.91304348 66.3043478,0.217391304 75.2173913,0.217391304 M75.2173913,19.5652174 C79.673913,19.5652174 82.2826087,17.0652174 82.2826087,12.7173913 C82.2826087,8.36956522 79.673913,5.86956522 75.2173913,5.86956522 C70.7608696,5.86956522 68.1521739,8.36956522 68.1521739,12.7173913 C68.1521739,17.0652174 70.7608696,19.5652174 75.2173913,19.5652174" id="Shape"></path>
                <path d="M15.326087,0.217391304 C24.2391304,0.217391304 30.2173913,3.91304348 30.2173913,12.6086957 C30.2173913,21.4130435 24.2391304,25 15.326087,25 C6.41304348,25 0.434782609,21.3043478 0.434782609,12.6086957 C0.434782609,3.91304348 6.41304348,0.217391304 15.326087,0.217391304 M15.326087,19.5652174 C19.7826087,19.5652174 22.3913043,17.0652174 22.3913043,12.7173913 C22.3913043,8.36956522 19.7826087,5.86956522 15.326087,5.86956522 C10.8695652,5.86956522 8.26086957,8.36956522 8.26086957,12.7173913 C8.26086957,17.0652174 10.8695652,19.5652174 15.326087,19.5652174" id="Shape"></path>
                <g id="Group" transform="translate(31.521739, 0.000000)">
                    <path d="M24.5652174,0.652173913 L14.673913,0.652173913 L21.3043478,12.7173913 L26.3043478,3.58695652 C27.2826087,1.95652174 26.4130435,0.652173913 24.5652174,0.652173913 Z" id="Shape"></path>
                    <path d="M2.93478261,0.652173913 C1.08695652,0.652173913 0.326086957,1.95652174 1.19565217,3.58695652 L12.173913,23.4782609 C13.0434783,25.1086957 14.5652174,25.1086957 15.4347826,23.4782609 L18.9130435,17.2826087 L9.67391304,0.652173913 L2.93478261,0.652173913 Z" id="Shape"></path>
                </g>
            </g>
        </g>
    </g>
</svg>