<?xml version="1.0" encoding="UTF-8"?>
<svg width="46px" height="15px" viewBox="0 0 46 15" version="1.1" xmlns="http://www.w3.org/2000/svg" xmlns:xlink="http://www.w3.org/1999/xlink">
    <!-- Generator: Sketch 50.2 (55047) - http://www.bohemiancoding.com/sketch -->
    <title>OVO</title>
    <desc>Created with Sketch.</desc>
    <defs></defs>
    <g id="Page-1" stroke="none" stroke-width="1" fill="none" fill-rule="evenodd">
        <g id="index-rwd" transform="translate(-246.000000, -1510.000000)" fill="#FFFFFF" fill-rule="nonzero">
            <g id="logo-part" transform="translate(40.000000, 1485.000000)">
                <g id="OVO" transform="translate(206.000000, 25.000000)">
                    <path d="M38.4807692,0.888888889 C42.9813307,0.888888889 46,2.87719298 46,7.55555556 C46,12.2923977 42.9813307,14.2222222 38.4807692,14.2222222 C33.9802077,14.2222222 30.9615385,12.2339181 30.9615385,7.55555556 C30.9615385,2.87719298 33.9802077,0.888888889 38.4807692,0.888888889 M38.4807692,11.2982456 C40.73105,11.2982456 42.0482875,9.95321637 42.0482875,7.61403509 C42.0482875,5.2748538 40.73105,3.92982456 38.4807692,3.92982456 C36.2304885,3.92982456 34.913251,5.2748538 34.913251,7.61403509 C34.913251,9.95321637 36.2304885,11.2982456 38.4807692,11.2982456" id="Shape"></path>
                    <path d="M7.51923077,0.888888889 C12.0197923,0.888888889 15.0384615,2.87719298 15.0384615,7.55555556 C15.0384615,12.2923977 12.0197923,14.2222222 7.51923077,14.2222222 C3.01866929,14.2222222 0,12.2339181 0,7.55555556 C7.9214818e-16,2.87719298 3.01866929,0.888888889 7.51923077,0.888888889 M7.51923077,11.2982456 C9.76951151,11.2982456 11.086749,9.95321637 11.086749,7.61403509 C11.086749,5.2748538 9.76951151,3.92982456 7.51923077,3.92982456 C5.26895003,3.92982456 3.95171252,5.2748538 3.95171252,7.61403509 C3.95171252,9.95321637 5.26895003,11.2982456 7.51923077,11.2982456" id="Shape"></path>
                    <g id="Group" transform="translate(16.807692, 0.888889)">
                        <path d="M12.7788498,0.347826087 L7.63338374,0.347826087 L11.0825423,6.7826087 L13.6835471,1.91304348 C14.1924394,1.04347826 13.7400907,0.347826087 12.7788498,0.347826087 Z" id="Shape"></path>
                        <path d="M1.52667675,0.347826087 C0.565435832,0.347826087 0.16963075,1.04347826 0.621979416,1.91304348 L6.33288132,12.5217391 C6.78522999,13.3913043 7.57684015,13.3913043 8.02918882,12.5217391 L9.83858348,9.2173913 L5.03237891,0.347826087 L1.52667675,0.347826087 Z" id="Shape"></path>
                    </g>
                </g>
            </g>
        </g>
    </g>
</svg>