<?xml version="1.0" encoding="UTF-8"?>
<svg width="25px" height="50px" viewBox="0 0 25 50" version="1.1" xmlns="http://www.w3.org/2000/svg" xmlns:xlink="http://www.w3.org/1999/xlink">
    <!-- Generator: Sketch 50.2 (55047) - http://www.bohemiancoding.com/sketch -->
    <title>phone</title>
    <desc>Created with Sketch.</desc>
    <defs></defs>
    <g id="Page-1" stroke="none" stroke-width="1" fill="none" fill-rule="evenodd">
        <g id="index01" transform="translate(-810.000000, -1953.000000)">
            <g id="隨時隨地盡享影音樂趣" transform="translate(811.000000, 1781.000000)">
                <g id="Group-4">
                    <g>
                        <g id="phone" transform="translate(0.000000, 173.000000)">
                            <polygon id="Stroke-1" stroke="#FFFFFF" stroke-width="0.5" points="1.90188679 41.8037743 21.5627774 41.8037743 21.5627774 5.34545455 1.90188679 5.34545455"></polygon>
                            <g id="Group-12" transform="translate(0.000000, 0.070499)">
                                <path d="M10.3245283,44.8031794 C10.3245283,43.9550676 10.9415547,43.2679245 11.7031245,43.2679245 C12.4644226,43.2679245 13.0817208,43.9550676 13.0817208,44.8031794 C13.0817208,45.6509887 12.4644226,46.3384343 11.7031245,46.3384343 C10.9415547,46.3384343 10.3245283,45.6509887 10.3245283,44.8031794 Z" id="Stroke-2" stroke="#FFFFFF" stroke-width="0.75"></path>
                                <path d="M7.60665057,3.43311314 C7.60665057,3.17108501 7.79738264,2.95867883 8.03267321,2.95867883 C8.26823547,2.95867883 8.45896755,3.17108501 8.45896755,3.43311314 C8.45896755,3.69514127 8.26823547,3.90754744 8.03267321,3.90754744 C7.79738264,3.90754744 7.60665057,3.69514127 7.60665057,3.43311314" id="Fill-4" fill="#FFFFFF"></path>
                                <path d="M11.4384091,1.72200288 C11.4384091,1.49840151 11.6011562,1.31716034 11.8022128,1.31716034 C12.0029977,1.31716034 12.1657449,1.49840151 12.1657449,1.72200288 C12.1657449,1.94560425 12.0029977,2.12714799 11.8022128,2.12714799 C11.6011562,2.12714799 11.4384091,1.94560425 11.4384091,1.72200288" id="Fill-6" fill="#FFFFFF"></path>
                                <path d="M21.2946113,47.725731 L2.17358491,47.725731 C0.978113208,47.725731 0,46.636166 0,45.3051479 L0,2.42058319 C0,1.08926244 0.978113208,0 2.17358491,0 L21.2946113,0 C22.490083,0 23.4681962,1.08926244 23.4681962,2.42058319 L23.4681962,45.3051479 C23.4681962,46.636166 22.490083,47.725731 21.2946113,47.725731 Z" id="Stroke-8" stroke="#FFFFFF"></path>
                                <path d="M13.6796468,3.69828631 L9.9340166,3.69828631 C9.81800151,3.69828631 9.72317887,3.58585075 9.72317887,3.44828631 C9.72317887,3.31072188 9.81800151,3.19828631 9.9340166,3.19828631 L13.6796468,3.19828631 C13.7956619,3.19828631 13.8904845,3.31072188 13.8904845,3.44828631 C13.8904845,3.58585075 13.7956619,3.69828631 13.6796468,3.69828631" id="Fill-10" fill="#FFFFFF"></path>
                            </g>
                        </g>
                    </g>
                </g>
            </g>
        </g>
    </g>
</svg>