<?xml version="1.0" encoding="UTF-8"?>
<svg width="56px" height="16px" viewBox="0 0 56 16" version="1.1" xmlns="http://www.w3.org/2000/svg" xmlns:xlink="http://www.w3.org/1999/xlink">
    <!-- Generator: Sketch 50.2 (55047) - http://www.bohemiancoding.com/sketch -->
    <title>sharp</title>
    <desc>Created with Sketch.</desc>
    <defs>
        <polygon id="path-1" points="0 0.0308908046 10.7081322 0.0308908046 10.7081322 8.04597701 0 8.04597701"></polygon>
    </defs>
    <g id="sharp" stroke="none" stroke-width="1" fill="none" fill-rule="evenodd">
        <g transform="translate(0.000000, 1.000000)">
            <path d="M50.3295146,7.57795734 C49.5551177,7.57795734 48.6614243,7.51109281 48.0216411,7.27750493 L48.0216411,4.97462045 C48.8299123,4.90775592 50.1103624,4.85782651 50.4812128,4.85782651 C50.8511795,4.85782651 52.7711182,4.94133418 52.787319,6.17613809 C52.8038143,7.4611634 51.1039115,7.57795734 50.3295146,7.57795734 M50.1946064,3.53951493 C49.3869243,3.53951493 47.1138087,3.6230226 45.6153846,3.83996734 L45.6153846,11.3162393 L48.0216411,11.3162393 L48.0216411,8.61245964 C48.3247428,8.71290243 50.0599927,8.87962578 50.6661961,8.87962578 C51.272105,8.87962578 55.6153846,8.69596731 55.6153846,6.14285182 C55.6153846,3.40607786 51.0028776,3.53951493 50.1946064,3.53951493" id="Fill-5" fill="#FEFEFE"></path>
            <g id="Group-9" transform="translate(1.000000, 2.769231)">
                <mask id="mask-2" fill="white">
                    <use xlink:href="#path-1"></use>
                </mask>
                <g id="Clip-8"></g>
                <path d="M8.12968391,3.34813218 C7.49548851,3.20646552 5.10784483,2.82255747 4.4837069,2.74066092 C3.66244253,2.64181034 3.1862931,2.4941092 3.1862931,2.03433908 C3.1862931,1.41020115 4.40008621,1.51824713 5.38715517,1.5579023 C6.60238506,1.60732759 8.88514368,2.36278736 9.54204023,2.64181034 L10.3138793,0.950431034 C9.04951149,0.326293103 6.61876437,0.0308908046 5.07508621,0.0308908046 C3.95813218,0.0469827586 0.226810345,0.310201149 0.180833333,2.29698276 C0.148074713,3.70933908 1.38456897,4.22198276 2.95612069,4.6125 C4.30295977,4.89181034 5.7975,5.02341954 6.8158908,5.23663793 C8.12020115,5.51020115 8.1133046,6.43577586 7.07853448,6.53405172 C5.2929023,6.66451149 2.26646552,5.77887931 0.886867816,5.08893678 L-0.000201149425,6.89554598 C1.92163793,7.83204023 4.89376437,8.05818966 5.91244253,8.04554598 C7.22623563,8.02887931 10.7081322,7.89755747 10.7081322,5.81163793 C10.7081322,4.43864943 9.52566092,3.66020115 8.12968391,3.34813218" id="Fill-7" fill="#FEFEFE" mask="url(#mask-2)"></path>
            </g>
            <polygon id="Fill-10" fill="#FEFEFE" points="19.2356953 6.34329566 14.3024747 6.34329566 14.3024747 3.53846154 11.7692308 3.53846154 11.7692308 10.7606838 14.3024747 10.7606838 14.3024747 7.79394549 19.2356953 7.79394549 19.2356953 10.7606838 21.7692308 10.7606838 21.7692308 3.53846154 19.2356953 3.53846154"></polygon>
            <path d="M26.2813434,7.66504272 L27.8049192,5.06978138 L29.3713048,7.66504272 L26.2813434,7.66504272 Z M29.8300219,3.53846154 L26.7998809,3.53846154 L22.5384615,10.7606838 L24.4504442,10.7606838 L25.4387556,9.11597461 L30.2470632,9.11597461 L31.2399107,10.7606838 L34.2051282,10.7606838 L29.8300219,3.53846154 Z" id="Fill-12" fill="#FEFEFE"></path>
            <path d="M44.6354018,6.02940698 C44.6182442,3.29436562 40.0757792,3.54443821 39.2913926,3.54443821 C38.50672,3.54443821 36.3005433,3.62789301 34.8461538,3.84499221 L34.8461538,11.3162393 L37.2167572,11.3162393 L37.2167572,4.978927 C38.0663426,4.9121048 39.274807,4.8619152 39.6342579,4.8619152 C39.9942808,4.8619152 41.8410066,4.7953848 41.8570203,6.14612698 C41.8727481,7.43033876 40.140978,7.44697136 39.3889048,7.44697136 C38.915356,7.44697136 38.5233057,7.34688397 38.1143838,7.24679657 L37.6728625,8.01423056 L41.3340006,11.3162393 L44.8461538,11.3162393 L41.6594224,8.45689115 C43.0117243,8.17968116 44.6451244,7.53421956 44.6354018,6.02940698" id="Fill-14" fill="#FEFEFE"></path>
            <rect id="Rectangle-8" x="1" y="2" width="54.4444444" height="10"></rect>
            <rect id="Rectangle-4" x="0" y="0" width="56" height="14"></rect>
        </g>
    </g>
</svg>