<?xml version="1.0" encoding="UTF-8"?>
<svg width="32px" height="50px" viewBox="0 0 32 50" version="1.1" xmlns="http://www.w3.org/2000/svg" xmlns:xlink="http://www.w3.org/1999/xlink">
    <!-- Generator: Sketch 50.2 (55047) - http://www.bohemiancoding.com/sketch -->
    <title>tablet</title>
    <desc>Created with Sketch.</desc>
    <defs></defs>
    <g id="Page-1" stroke="none" stroke-width="1" fill="none" fill-rule="evenodd">
        <g id="index01" transform="translate(-842.000000, -1953.000000)">
            <g id="隨時隨地盡享影音樂趣" transform="translate(811.000000, 1781.000000)">
                <g id="Group-4">
                    <g>
                        <g id="tablet" transform="translate(32.000000, 173.000000)">
                            <polygon id="Stroke-1" stroke="#FFFFFF" stroke-width="0.5" points="2.38461538 42.0310091 28.5630273 42.0310091 28.5630273 5.33333333 2.38461538 5.33333333"></polygon>
                            <g id="Group-8">
                                <path d="M14.1421218,44.871898 C14.1421218,44.1366849 14.6747902,43.5410128 15.3322404,43.5410128 C15.989456,43.5410128 16.5223589,44.1366849 16.5223589,44.871898 C16.5223589,45.6068488 15.989456,46.2027832 15.3322404,46.2027832 C14.6747902,46.2027832 14.1421218,45.6068488 14.1421218,44.871898 Z" id="Stroke-2" stroke="#FFFFFF" stroke-width="0.75"></path>
                                <path d="M14.3076923,2.66666667 C14.3076923,2.17573696 14.6635597,1.77777778 15.1025641,1.77777778 C15.5415686,1.77777778 15.8974359,2.17573696 15.8974359,2.66666667 C15.8974359,3.15759637 15.5415686,3.55555556 15.1025641,3.55555556 C14.6635597,3.55555556 14.3076923,3.15759637 14.3076923,2.66666667" id="Fill-4" fill="#FFFFFF"></path>
                                <path d="M28.5018613,47.6695082 L1.87641866,47.6695082 C0.844388398,47.6695082 0,46.7252459 0,45.5711475 L0,2.09836066 C0,0.944262295 0.844388398,0 1.87641866,0 L28.5018613,0 C29.5338916,0 30.3782799,0.944262295 30.3782799,2.09836066 L30.3782799,45.5711475 C30.3782799,46.7252459 29.5338916,47.6695082 28.5018613,47.6695082 Z" id="Stroke-6" stroke="#FFFFFF"></path>
                            </g>
                        </g>
                    </g>
                </g>
            </g>
        </g>
    </g>
</svg>