<?xml version="1.0" encoding="UTF-8"?>
<svg width="78px" height="50px" viewBox="0 0 78 50" version="1.1" xmlns="http://www.w3.org/2000/svg" xmlns:xlink="http://www.w3.org/1999/xlink">
    <!-- Generator: Sketch 50.2 (55047) - http://www.bohemiancoding.com/sketch -->
    <title>tv</title>
    <desc>Created with Sketch.</desc>
    <defs>
        <polygon id="path-1" points="0 49 76 49 76 0.890909091 0 0.890909091"></polygon>
    </defs>
    <g id="Page-1" stroke="none" stroke-width="1" fill="none" fill-rule="evenodd">
        <g id="index01" transform="translate(-960.000000, -1953.000000)">
            <g id="隨時隨地盡享影音樂趣" transform="translate(811.000000, 1781.000000)">
                <g id="Group-4">
                    <g>
                        <g id="tv" transform="translate(150.000000, 173.000000)">
                            <path d="M73.1980534,43.6545455 L2.80194662,43.6545455 C1.26052573,43.6545455 0,42.6313121 0,41.3806936 L0,2.27385189 C0,1.02323335 1.26052573,0 2.80194662,0 L73.1980534,0 C74.739124,0 76,1.02323335 76,2.27385189 L76,41.3806936 C76,42.6313121 74.739124,43.6545455 73.1980534,43.6545455 Z" id="Stroke-1" stroke="#FFFFFF"></path>
                            <path d="M0,39.2 L76,39.2" id="Stroke-3" stroke="#FFFFFF" stroke-width="0.5"></path>
                            <mask id="mask-2" fill="white">
                                <use xlink:href="#path-1"></use>
                            </mask>
                            <g id="Clip-6"></g>
                            <polygon id="Stroke-5" stroke="#FFFFFF" stroke-width="0.5" mask="url(#mask-2)" points="4.85106383 35.6363636 71.9574468 35.6363636 71.9574468 5.34545455 4.85106383 5.34545455"></polygon>
                            <path d="M38.8085106,2.67272727 C38.8085106,3.16504055 38.4466597,3.56363636 38.0002692,3.56363636 C37.5533403,3.56363636 37.1914894,3.16504055 37.1914894,2.67272727 C37.1914894,2.18041399 37.5533403,1.78181818 38.0002692,1.78181818 C38.4466597,1.78181818 38.8085106,2.18041399 38.8085106,2.67272727" id="Fill-7" fill="#FFFFFF" mask="url(#mask-2)"></path>
                            <path d="M51.3934137,49 L25.415097,49 C25.2219,49 25.0638298,48.8658943 25.0638298,48.7019873 L25.0638298,47.5161946 C25.0638298,47.3522876 25.2219,47.2181818 25.415097,47.2181818 L51.3934137,47.2181818 C51.5866106,47.2181818 51.7446809,47.3522876 51.7446809,47.5161946 L51.7446809,48.7019873 C51.7446809,48.8658943 51.5866106,49 51.3934137,49 Z" id="Stroke-8" stroke="#FFFFFF" stroke-width="0.5" mask="url(#mask-2)"></path>
                            <path d="M29.8963491,43.6545455 C29.8963491,44.4140089 30.0489116,45.2016192 29.478864,45.9465715 C28.9098472,46.6897724 27.2210081,47.2181818 25.0638298,47.2181818" id="Stroke-9" stroke="#FFFFFF" stroke-width="0.5" mask="url(#mask-2)"></path>
                            <path d="M46.1036351,43.6545455 C46.1036351,44.4140089 45.951083,45.2016192 46.5214355,45.9465715 C47.0904137,46.6897724 48.7787946,47.2181818 50.9361702,47.2181818" id="Stroke-10" stroke="#FFFFFF" stroke-width="0.5" mask="url(#mask-2)"></path>
                        </g>
                    </g>
                </g>
            </g>
        </g>
    </g>
</svg>