<?xml version="1.0" encoding="UTF-8"?>
<svg width="53px" height="25px" viewBox="0 0 53 25" version="1.1" xmlns="http://www.w3.org/2000/svg" xmlns:xlink="http://www.w3.org/1999/xlink">
    <!-- Generator: Sketch 50.2 (55047) - http://www.bohemiancoding.com/sketch -->
    <title>apple-tv</title>
    <desc>Created with Sketch.</desc>
    <defs></defs>
    <g id="Page-1" stroke="none" stroke-width="1" fill="none" fill-rule="evenodd">
        <g id="index-最酷的一天01" transform="translate(-269.000000, -2100.000000)" fill="#FFFFFF" fill-rule="nonzero">
            <g id="apple-tv" transform="translate(269.000000, 2100.000000)">
                <path d="M30.4606453,2.02020202 L30.4606453,6.10755923 L35.5846605,6.10755923 L35.5846605,7.57266898 L30.4606453,7.57266898 L30.4606453,19.6403893 C30.4606453,20.87452 30.6593316,21.8186188 31.0581981,22.4741807 C31.4563176,23.1297425 32.1427564,23.4571497 33.1197552,23.4571497 C33.5821117,23.4571497 33.9802312,23.4317346 34.3141139,23.3801567 C34.6479965,23.3293264 34.9303402,23.2642934 35.1618919,23.1873004 L35.3546027,24.5754172 C34.7383763,24.8579741 33.9159943,25 32.8889505,25 C32.0411724,25 31.3412887,24.8579741 30.7892993,24.5754172 C30.236563,24.2928603 29.8003495,23.9011677 29.4791648,23.3995918 C29.1579802,22.898016 28.933151,22.2947795 28.8046771,21.5876398 C28.6754563,20.8812476 28.6119663,20.11655 28.6119663,19.293547 L28.6119663,7.57266898 L25.5681818,7.57266898 L25.5681818,6.10755923 L28.6119663,6.10755923 L28.6119663,2.71388664 L30.4606453,2.02020202 Z M38.5515101,6.10681173 L42.7896533,17.5967107 C43.1489319,18.4967067 43.4701165,19.3451249 43.7524602,20.1412177 C44.0348039,20.938058 44.3044496,21.7221907 44.5613973,22.4928683 L44.6383322,22.4928683 C44.894533,21.7476058 45.1709011,20.9694532 45.4666898,20.1599053 C45.7617315,19.3503574 46.0896386,18.4959592 46.4489172,17.5959632 L50.7251543,6.10606422 L52.6515152,6.10606422 L45.2926525,24.6127924 L43.7128723,24.6127924 L36.6251493,6.10681173 L38.5515101,6.10681173 Z" id="Shape"></path>
                <path d="M11.2511571,2.17553716 C12.8948785,0.0104593133 15.1799428,0 15.1799428,0 C15.1799428,0 15.5200488,2.03583062 13.8867922,3.99620476 C12.1436552,6.0903087 10.1620702,5.74739264 10.1620702,5.74739264 C10.1620702,5.74739264 9.78982225,4.1007979 11.2511571,2.17553716 Z M10.3706188,7.17359472 C11.2160253,7.17359472 12.7849981,6.01186385 14.8278769,6.01186385 C18.3440504,6.01186385 19.7268992,8.51238682 19.7268992,8.51238682 C19.7268992,8.51238682 17.0217479,9.89451035 17.0217479,13.2489615 C17.0217479,17.0329917 20.3914141,18.3366704 20.3914141,18.3366704 C20.3914141,18.3366704 18.0360862,24.9633924 14.8540389,24.9633924 C13.3927041,24.9633924 12.2565256,23.9787228 10.7167047,23.9787228 C9.1477319,23.9787228 7.58997138,25 6.57638056,25 C3.67090304,25.0007471 0,18.7139527 0,13.6613573 C0,8.68944805 3.1072987,6.08134357 6.02099857,6.08134357 C7.91587521,6.08134357 9.38617989,7.17359472 10.3706188,7.17359472 Z" id="Shape"></path>
            </g>
        </g>
    </g>
</svg>