<?xml version="1.0" encoding="UTF-8"?>
<svg width="174px" height="25px" viewBox="0 0 174 25" version="1.1" xmlns="http://www.w3.org/2000/svg" xmlns:xlink="http://www.w3.org/1999/xlink">
    <!-- Generator: Sketch 50.2 (55047) - http://www.bohemiancoding.com/sketch -->
    <title>chromecast</title>
    <desc>Created with Sketch.</desc>
    <defs></defs>
    <g id="Page-1" stroke="none" stroke-width="1" fill="none" fill-rule="evenodd">
        <g id="index-最酷的一天01" transform="translate(-81.000000, -2100.000000)" fill="#FFFFFF" fill-rule="nonzero">
            <g id="chromecast" transform="translate(81.000000, 2100.000000)">
                <path d="M0,15.9199327 C0,10.8619399 3.585597,6.99420073 8.66460572,6.99420073 C12.6986959,6.99420073 14.9388134,9.3747077 15.9860801,11.7552147 L13.147189,13.0951267 C12.4004831,11.1612571 10.756791,9.97100365 8.51667342,9.97100365 C5.82806271,9.97100365 3.28738428,12.3515106 3.28738428,16.0719297 C3.28738428,19.6426901 5.82806271,22.1728557 8.51667342,22.1728557 C10.9070714,22.1728557 12.5507636,20.9826022 13.4477498,19.0487326 L16.286641,20.2389861 C15.2417224,22.619493 12.8513244,25 8.81723427,25 C3.585597,24.848003 1.06780664e-14,20.9779254 1.06780664e-14,15.9199327 Z M21.6638624,7.58815826 L21.513582,9.96866523 L21.6638624,9.96866523 C22.5608487,8.48143298 24.6506859,7.14152091 27.0410839,7.14152091 C31.3733867,7.14152091 33.465572,9.96866523 33.465572,14.1333832 L33.465572,24.3990272 L30.3284681,24.3990272 L30.3284681,14.582359 C30.3284681,11.1612571 28.5368437,9.97100365 26.1464457,9.97100365 C23.457835,9.97100365 21.6638624,12.5011692 21.6638624,15.1786549 L21.6638624,24.4037041 L18.5267586,24.4037041 L18.5267586,0 L21.6638624,0 L21.6638624,7.58815826 Z M36.7529563,24.4013656 L36.7529563,7.58815826 L39.7397797,7.58815826 L39.7397797,10.265644 L39.8900601,10.265644 C40.636766,8.33177439 43.027164,7.14152091 44.8211366,7.14152091 C45.8660551,7.14152091 46.4648287,7.2911795 47.2115346,7.58815826 L46.0163356,10.5626228 C45.5678424,10.4129642 44.971417,10.265644 44.3726434,10.265644 C42.2804581,10.265644 40.0403406,12.049855 40.0403406,15.1763165 L40.0403406,24.4013656 L36.7529563,24.4013656 Z M64.540746,15.9199327 C64.540746,20.9779254 60.955149,24.8456646 55.8761403,24.8456646 C50.7971316,24.8456646 47.2115346,20.9779254 47.2115346,15.9199327 C47.2115346,10.8619399 50.7971316,6.99420073 55.8761403,6.99420073 C60.955149,6.99420073 64.540746,10.8619399 64.540746,15.9199327 Z M61.4036421,15.9199327 C61.4036421,12.0521934 58.7150314,9.81900664 55.8761403,9.81900664 C53.0372491,9.81900664 50.3486384,12.049855 50.3486384,15.9199327 C50.3486384,19.7900103 53.0372491,22.0208587 55.8761403,22.0208587 C58.7150314,22.0208587 61.4036421,19.7876719 61.4036421,15.9199327 Z M67.0814244,7.58815826 L70.0682479,7.58815826 L70.0682479,9.96866523 L70.2185283,9.96866523 C71.1155146,8.33177439 73.3556321,7.14152091 75.4478174,7.14152091 C78.1364281,7.14152091 79.9304007,8.33177439 80.8250389,10.4153026 C82.0202379,8.48143298 84.1124231,7.14152091 86.6507534,7.14152091 C90.6848436,7.14152091 92.6267484,9.96866523 92.6267484,14.1333832 L92.6267484,24.3990272 L89.3393641,24.3990272 L89.3393641,14.582359 C89.3393641,11.1612571 87.9938847,9.97100365 85.6034867,9.97100365 C83.0628083,9.97100365 81.2711839,12.5011692 81.2711839,15.1786549 L81.2711839,24.4037041 L78.13408,24.4037041 L78.13408,14.582359 C78.13408,11.1612571 76.7886006,9.97100365 74.3982026,9.97100365 C71.8575242,9.97100365 70.0658997,12.5011692 70.0658997,15.1786549 L70.0658997,24.4037041 L66.9287959,24.4037041 L66.9287959,7.59049668 L67.0814244,7.59049668 L67.0814244,7.58815826 Z M94.8692141,15.9199327 C94.8692141,11.1589187 98.1565984,6.99420073 103.085327,6.99420073 C108.016403,6.99420073 111.301439,10.5649612 111.301439,15.9199327 L111.301439,16.5138902 L98.0039699,16.5138902 C98.1542503,20.0846506 100.692581,22.0185203 103.381191,22.0185203 C105.172816,22.0185203 107.117069,21.2749041 108.011707,19.1913759 L110.850598,20.3816294 C109.805679,22.7621364 107.415281,24.9929848 103.529124,24.9929848 C98.3045307,24.848003 94.8692141,20.9779254 94.8692141,15.9199327 Z M103.085327,9.96866523 C100.694929,9.96866523 98.9033043,11.6055561 98.3045307,13.986063 L108.016403,13.986063 C107.866123,12.4988308 106.670924,9.96866523 103.085327,9.96866523 Z M113.095412,15.9199327 C113.095412,10.8619399 116.681009,6.99420073 121.760018,6.99420073 C125.794108,6.99420073 128.034225,9.3747077 129.081492,11.7552147 L126.242601,12.9454682 C125.495895,11.0115985 123.852203,9.82134506 121.612085,9.82134506 C118.923475,9.82134506 116.382796,12.201852 116.382796,15.9222711 C116.382796,19.4930315 118.923475,22.0231971 121.612085,22.0231971 C124.002483,22.0231971 125.646175,20.8329436 126.543162,18.899074 L129.382053,20.0893275 C128.337134,22.4698344 125.946736,24.8503414 121.912646,24.8503414 C116.681009,24.848003 113.095412,20.9779254 113.095412,15.9199327 Z M131.023397,19.3433729 C131.023397,15.6229539 134.458713,13.5417641 138.344871,13.5417641 C140.584989,13.5417641 142.228681,14.1357216 142.827455,14.582359 L142.827455,13.986063 C142.827455,11.4558975 140.735269,9.96866523 138.495152,9.96866523 C136.703527,9.96866523 135.059835,10.8619399 134.461062,12.3491722 L131.62217,11.1589187 C132.218596,9.67168647 134.162849,7.14152091 138.495152,7.14152091 C142.529242,7.14152091 145.964558,9.52202787 145.964558,14.2830418 L145.964558,24.3990272 L142.977735,24.3990272 L142.977735,22.0185203 L142.827455,22.0185203 C141.930468,23.3584323 140.138844,24.8456646 137.299953,24.8456646 C133.862288,24.848003 131.023397,22.7644748 131.023397,19.3433729 Z M142.827455,17.1101861 C142.827455,17.1101861 141.481975,16.0695912 138.793364,16.0695912 C135.50598,16.0695912 134.162849,17.8538023 134.162849,19.3433729 C134.162849,21.1275839 135.954473,22.0208587 137.598165,22.0208587 C140.286776,22.0208587 142.827455,19.9373305 142.827455,17.1101861 Z M147.906463,20.0869891 L150.745354,18.8967356 C151.642341,20.9802638 153.286033,22.0208587 155.227938,22.0208587 C157.169843,22.0208587 158.515322,21.1275839 158.515322,19.6403517 C158.515322,18.747077 158.066829,17.8561407 156.275204,17.4095033 L152.839888,16.6658872 C151.346476,16.2192498 148.357305,15.0289964 148.357305,12.0545318 C148.357305,9.08006735 151.494408,7.14385932 154.929725,7.14385932 C157.768616,7.14385932 160.306946,8.4837714 161.354213,11.0115985 L158.665602,12.201852 C158.069177,10.5649612 156.425485,9.97100365 154.781793,9.97100365 C152.990168,9.97100365 151.494408,10.7146198 151.494408,12.0545318 C151.494408,13.0951267 152.391395,13.6914227 153.734526,13.9884015 L157.02191,14.7320176 C160.309295,15.4756337 161.652426,17.5591619 161.652426,19.6426901 C161.652426,22.6171546 158.963815,24.8503414 155.080005,24.8503414 C151.196196,24.8503414 148.80345,22.467496 147.906463,20.0869891 Z M165.834448,19.1937143 L165.834448,10.4153026 L162.847625,10.4153026 L162.847625,7.58815826 L165.834448,7.58815826 L165.834448,2.53016556 L168.971552,2.53016556 L168.971552,7.58815826 L173.005642,7.58815826 L173.005642,10.4153026 L168.971552,10.4153026 L168.971552,18.8967356 C168.971552,20.8306052 169.718258,21.5742213 171.21167,21.5742213 C171.810443,21.5742213 172.256588,21.5742213 172.705081,21.2772425 L173.75,23.9547283 C173.003294,24.251707 172.256588,24.4013656 171.209322,24.4013656 C167.776353,24.5486858 165.834448,22.6148162 165.834448,19.1937143 Z" id="Shape"></path>
            </g>
        </g>
    </g>
</svg>