<?xml version="1.0" encoding="UTF-8"?>
<svg width="268px" height="58px" viewBox="0 0 268 58" version="1.1" xmlns="http://www.w3.org/2000/svg" xmlns:xlink="http://www.w3.org/1999/xlink">
    <!-- Generator: Sketch 50.2 (55047) - http://www.bohemiancoding.com/sketch -->
    <title>logo-title</title>
    <desc>Created with Sketch.</desc>
    <defs>
        <polygon id="path-1" points="0.22562218 0.0867433628 9.23308681 0.0867433628 9.23308681 9.1129292 0.22562218 9.1129292"></polygon>
        <polygon id="path-3" points="0 0.225019469 22.8505714 0.225019469 22.8505714 45.4388425 0 45.4388425"></polygon>
        <polygon id="path-5" points="0.20359398 0.0227380531 28.5603049 0.0227380531 28.5603049 45.1681416 0.20359398 45.1681416"></polygon>
        <polygon id="path-7" points="0.0965414914 0.419293805 46.1123977 0.419293805 46.1123977 44.5978425 0.0965414914 44.5978425"></polygon>
    </defs>
    <g id="Page-1" stroke="none" stroke-width="1" fill="none" fill-rule="evenodd">
        <g id="index-尋找快樂的15種方法03" transform="translate(-549.000000, -448.000000)">
            <g id="logo-title" transform="translate(549.000000, 447.000000)">
                <g id="Group-3" transform="translate(48.680688, 0.913257)">
                    <mask id="mask-2" fill="white">
                        <use xlink:href="#path-1"></use>
                    </mask>
                    <g id="Clip-2"></g>
                    <path d="M7.91614608,1.41227434 C7.05372925,0.544840708 5.95098356,0.0864867257 4.72986692,0.0864867257 C3.50567572,0.0864867257 2.4044673,0.544840708 1.54102562,1.41227434 C0.679121224,2.27662832 0.22562218,3.38222124 0.22562218,4.60073451 C0.22562218,5.82438053 0.679121224,6.93048673 1.54102562,7.78970796 C2.4044673,8.65406195 3.50567572,9.1129292 4.72986692,9.1129292 C5.95098356,9.1129292 7.0491174,8.65714159 7.91050937,7.79484071 C8.77395105,6.9330531 9.23308681,5.82746018 9.23308681,4.60073451 C9.23308681,3.37452212 8.77907533,2.27149558 7.91614608,1.41227434" id="Fill-1" fill="#FFFFFF" mask="url(#mask-2)"></path>
                </g>
                <path d="M57.4377805,43.0303416 L57.4377805,14.2628549 L49.4070042,14.2628549 L49.4070042,43.0513858 C49.4070042,44.0276336 49.8097728,44.9053327 50.5686792,45.5977398 C51.3388589,46.2922 52.3196467,46.6586779 53.4106065,46.6586779 C54.4974669,46.6586779 55.4813293,46.2922 56.255096,45.5895274 C57.012465,44.9053327 57.4101094,44.0389257 57.4377805,43.0303416" id="Fill-4" fill="#FFFFFF"></path>
                <path d="M76.5447457,39.0760248 C74.6677208,39.0760248 72.7963327,38.7300779 71.1355526,38.0879717 C68.4714379,37.0506442 64.9203098,34.7131929 63.0955526,29.4598301 L62.9203021,28.9593876 L89.9626807,19.5449097 L90.1369063,20.0458655 C90.5094417,21.1278478 91.2698853,24.8013522 90.275262,28.7915469 C89.1146119,33.4320602 86.1020459,36.6287327 81.3149407,38.2953345 C79.8447839,38.8060425 78.1983518,39.0760248 76.5447457,39.0760248 M97.5399579,17.2634053 L96.2937323,13.2670513 C95.7649063,11.5747858 94.7497859,10.718131 93.2816788,10.718131 C92.7554149,10.718131 92.1656099,10.8300248 91.532761,11.0502195 L56.5298088,23.2343257 C55.2963939,23.6639363 54.4867572,24.2824319 54.1208834,25.0816 C53.7611587,25.8386796 53.8006157,26.789777 54.230543,27.9112814 L55.7278585,31.8157593 C58.8408604,39.9722018 64.2013728,43.5353522 68.1496329,45.0926265 C70.810673,46.1345735 73.7889063,46.6930159 76.7507419,46.6930159 C79.240631,46.6930159 81.7100229,46.2926619 83.8796444,45.5340425 C95.2586272,41.5761841 101.254038,29.1559717 97.5399579,17.2634053" id="Fill-6" fill="#FFFFFF"></path>
                <g id="Group-10" transform="translate(0.000000, 0.913257)">
                    <mask id="mask-4" fill="white">
                        <use xlink:href="#path-3"></use>
                    </mask>
                    <g id="Clip-9"></g>
                    <path d="M22.1705178,6.50339115 C22.8090034,5.66470088 23.0011641,4.60068319 22.7331641,3.34572743 C22.4313438,1.9044531 21.1974164,0.225019469 18.7152138,0.225019469 C9.8409805,0.225019469 4.98059809,4.78186903 4.64444512,13.3915327 L4.60703786,14.3662407 L3.34287725,14.4396389 C2.49532084,14.5156035 1.71181797,14.9164708 1.08563059,15.5898867 C0.375404971,16.3551788 -0.000204971319,17.3401522 -0.000204971319,18.4329133 C-0.000204971319,19.5359398 0.375404971,20.531692 1.08306845,21.3016035 C1.71438011,21.9775858 2.47687342,22.3656212 3.34031511,22.4441522 L4.62599771,22.5252496 L4.62599771,45.4388425 L12.6285904,45.4388425 L12.6285904,22.5226832 L18.327818,22.5226832 C19.2840092,22.5226832 20.1525751,22.1192496 20.8402539,21.3596035 C21.5310073,20.5891788 21.8932941,19.5990726 21.8932941,18.4878336 C21.8932941,17.3955858 21.5310073,16.4126655 20.8371793,15.6473735 C20.1525751,14.879515 19.2840092,14.4817274 18.327818,14.4817274 L12.6019442,14.4817274 L12.6019442,13.3284 C12.6019442,10.3231788 13.52534,8.53390442 18.245317,8.2664885 C19.9578524,8.17204602 21.3875273,7.52788673 22.1705178,6.50339115" id="Fill-8" fill="#FFFFFF" mask="url(#mask-4)"></path>
                </g>
                <g id="Group-13" transform="translate(128.107075, 13.745115)">
                    <mask id="mask-6" fill="white">
                        <use xlink:href="#path-5"></use>
                    </mask>
                    <g id="Clip-12"></g>
                    <path d="M26.0452956,0.421038938 C25.4959725,0.190065487 24.8067564,0.0566141593 24.1718577,0.0566141593 C23.0844849,0.0566141593 21.6450738,0.421038938 20.9363855,2.1738708 L14.3557813,17.768685 L7.9263434,2.1918354 C7.13156711,0.235233628 5.21611013,0.0227380531 4.43055755,0.0227380531 C3.84843901,0.0227380531 3.25709675,0.132578761 2.76824015,0.334295575 C2.11386922,0.606844248 0.952706692,1.46914513 0.446939962,2.72923363 C0.107712428,3.56535752 0.124622562,4.41944602 0.488446654,5.26532212 L9.94736061,28.3072336 L2.87636252,45.1313398 L11.5794447,45.1682956 L28.2881943,5.44086195 C28.6494562,4.62886195 28.6494562,3.56227788 28.297418,2.64813628 C28.0253185,1.95624248 27.4134792,1.0077115 26.0452956,0.421038938" id="Fill-11" fill="#FFFFFF" mask="url(#mask-6)"></path>
                </g>
                <path d="M119.575963,33.123223 C119.148086,34.1138425 118.57929,34.9597186 117.836269,35.7116655 C117.11682,36.4400018 116.252866,37.0318071 115.264904,37.4614177 C114.282579,37.8966743 113.249524,38.1066035 112.124231,38.1066035 C110.974342,38.1066035 109.941286,37.8966743 108.956912,37.4614177 C107.972024,37.0318071 107.111657,36.4487274 106.394258,35.7198779 C105.675321,34.9935947 105.099351,34.1266743 104.674548,33.1411876 C104.25077,32.1536478 104.044262,31.1291522 104.044262,30.0102142 C104.044262,28.8994885 104.25077,27.877046 104.669424,26.8900195 C105.097302,25.8988867 105.675321,25.0288867 106.39682,24.3010637 C107.118319,23.5722142 107.956139,23.0009398 108.956912,22.5584973 C109.941286,22.1288867 110.976904,21.9215239 112.124231,21.9215239 C113.249524,21.9215239 114.278992,22.1288867 115.25978,22.5584973 C116.252866,22.9906743 117.11682,23.5855593 117.836269,24.3138956 C118.57929,25.0627628 119.148086,25.9091522 119.575963,26.9028513 C119.999741,27.8852584 120.202151,28.8994885 120.202151,30.0102142 C120.202151,31.1245327 119.999741,32.142869 119.575963,33.123223 M112.124231,13.8805681 C107.69685,13.8805681 103.867986,15.470692 100.733975,18.6047451 C97.6040627,21.7403381 96.0160474,25.5765504 96.0160474,30.0102142 C96.0160474,34.4454177 97.6040627,38.2821434 100.733975,41.4208159 C103.867986,44.5569221 107.69685,46.1455062 112.124231,46.1455062 C116.074541,46.1455062 118.462969,44.8582142 119.535481,44.090869 L120.120162,43.6715239 L120.229309,46.3395239 L128.231902,46.3395239 L128.231902,30.0102142 C128.231902,25.5765504 126.63825,21.7357186 123.500652,18.5914 C120.342556,15.4655593 116.508567,13.8805681 112.124231,13.8805681" id="Fill-14" fill="#FFFFFF"></path>
                <path d="M46.9677943,17.289685 C46.6721231,15.2191363 44.9088574,13.9826584 42.2503793,13.9826584 L41.5580887,13.9852248 C36.7632971,13.9852248 33.559083,16.9144814 33.5273124,16.9406584 L32.8770409,17.5488885 L32.8724291,14.2865168 L24.861125,14.2865168 L24.875473,43.0986584 C24.875473,44.0620743 25.2767044,44.929508 26.0366356,45.6183221 C26.8037407,46.3107292 27.7947771,46.6766938 28.9000849,46.6766938 C29.9936069,46.6766938 30.9784941,46.3107292 31.7481614,45.6126761 C32.5060428,44.929508 32.9006126,44.0564283 32.9006126,43.0986584 L32.9006126,30.2401097 C32.9006126,25.4512602 38.1729874,22.7806938 40.5798631,22.2987292 C40.9836566,22.2181451 41.5047962,22.1811894 42.0551442,22.1468 C42.5132551,22.1237027 42.9836642,22.0918796 43.3813086,22.0292602 C44.9964826,21.7905876 47.3961843,20.2866938 46.9677943,17.289685" id="Fill-16" fill="#FFFFFF"></path>
                <path d="M212.12984,3.91847788 C207.709121,8.90185841 202.533083,12.3710796 196.654506,14.2342655 L194.697542,10.2091681 L196.603263,9.65688496 C201.026544,8.04520354 205.195148,5.17907965 208.916402,1.05184071 L212.12984,3.91847788 Z M213.286391,16.3484425 C208.965595,22.6370796 203.437007,27.468531 196.756991,30.6415929 L194.295798,26.7638053 L195.55176,26.2607965 C201.026544,23.8448142 205.848494,19.7206549 209.820326,13.9355398 L213.286391,16.3484425 Z M213.335072,31.244177 C212.12984,33.7597345 210.822123,35.9231858 209.41807,37.8361593 C206.552058,41.6574867 201.779301,45.0312389 195.146429,47.7988142 L192.535094,44.0760354 C197.057274,42.3088319 200.775966,40.1479469 203.737802,37.7340177 C205.446238,35.9709204 207.405764,33.1047965 209.515431,29.2819292 L213.335072,31.244177 Z M189.625014,36.0258407 C190.980899,37.8361593 192.286054,40.1479469 193.592746,43.0171504 L189.925297,44.9799115 C188.568899,42.0111327 187.31345,39.744 186.056976,38.1851858 L189.625014,36.0258407 Z M173.346192,10.4611858 L173.346192,12.8771681 L173.497358,13.0783717 L189.12181,13.0783717 L189.322169,12.8771681 L189.322169,10.4611858 L173.346192,10.4611858 Z M189.322169,7.39026549 L189.322169,5.12877876 L189.12181,4.97736283 L173.497358,4.97736283 C173.346192,4.97736283 173.296486,5.02715044 173.346192,5.12877876 L173.346192,7.39026549 L189.322169,7.39026549 Z M173.096127,28.4745487 C172.995691,28.4745487 172.944448,28.5269027 172.995691,28.6269912 L172.995691,31.4433274 L173.096127,31.6476106 L189.12181,31.6476106 L189.322169,31.4433274 L189.322169,28.6269912 L189.12181,28.4745487 L173.096127,28.4745487 Z M169.378972,34.9643894 C169.030008,34.9643894 168.875767,34.7662655 168.875767,34.4126195 L168.875767,25.6551327 C168.875767,25.3066195 169.030008,25.1546903 169.378972,25.1546903 L192.83794,25.1546903 C193.189465,25.1546903 193.391875,25.3066195 193.391875,25.6551327 L193.391875,34.4126195 C193.391875,34.7662655 193.189465,34.9643894 192.83794,34.9643894 L183.496884,34.9643894 L183.496884,43.1680531 C183.445641,44.4260885 183.190964,45.4818938 182.638567,46.2369204 C182.137924,46.9421593 181.534284,47.4451681 180.8835,47.6966726 C179.424616,48.3013097 177.21605,47.9969381 174.301358,46.9421593 L174.151729,42.4664071 C176.661603,43.2655752 178.072318,43.5222124 178.370039,43.3179292 C178.921412,42.9647965 179.223745,42.5639292 179.223745,42.1599823 L179.223745,34.9643894 L169.378972,34.9643894 Z M179.123309,16.5475929 L169.828884,16.5475929 C169.480945,16.5475929 169.279049,16.3484425 169.279049,15.9973628 L169.279049,2.00858407 C169.279049,1.65442478 169.480945,1.45270796 169.828884,1.45270796 L192.789771,1.45270796 C193.189465,1.45270796 193.391875,1.65442478 193.391875,2.00858407 L193.391875,15.9973628 C193.391875,16.3484425 193.189465,16.5475929 192.789771,16.5475929 L183.190964,16.5475929 L183.190964,18.9661416 L196.052915,18.9661416 L196.052915,22.8382832 L166.364356,22.8382832 L166.364356,18.9661416 L179.123309,18.9661416 L179.123309,16.5475929 Z M176.161473,38.5362655 C173.747936,41.9613451 171.086896,44.5780177 168.373075,46.286708 C167.720754,44.7771681 166.968509,43.624354 166.263408,42.8641947 C168.773794,41.2561062 170.935217,38.9910265 172.694896,36.0730619 L176.161473,38.5362655 Z" id="Fill-18" fill="#FFFFFF"></path>
                <g id="Group-22" transform="translate(221.881453, 1.939805)">
                    <mask id="mask-8" fill="white">
                        <use xlink:href="#path-7"></use>
                    </mask>
                    <g id="Clip-21"></g>
                    <path d="M29.7333446,11.1883027 L15.9710577,11.1883027 L18.0289698,16.7249929 L28.0269583,16.7249929 L29.7333446,11.1883027 Z M10.394813,35.9466035 L10.394813,40.2694 C10.344595,40.4244088 10.394813,40.4741965 10.5454669,40.5265504 L35.3628818,40.5265504 L35.5632413,40.2694 L35.5632413,35.9466035 L10.394813,35.9466035 Z M35.5632413,31.8701788 L35.5632413,27.6931522 C35.5632413,27.5437894 35.5094363,27.4914354 35.3628818,27.4914354 L10.5454669,27.4914354 C10.394813,27.4914354 10.344595,27.5437894 10.394813,27.6931522 L10.394813,31.8701788 L35.5632413,31.8701788 Z M8.18419732,4.4993115 L38.2232566,4.4993115 L38.2232566,0.419293805 L8.18419732,0.419293805 L8.18419732,4.4993115 Z M39.1784229,44.5978425 L6.67612084,44.5978425 C6.32613231,44.5978425 6.12372314,44.3966389 6.12372314,43.9459841 L6.12372314,24.0222142 C6.12372314,23.6157009 6.32613231,23.4170637 6.67612084,23.4170637 L39.1784229,23.4170637 C39.628335,23.4170637 39.8358685,23.6157009 39.8358685,24.0222142 L39.8358685,43.9459841 C39.8358685,44.3966389 39.628335,44.5978425 39.1784229,44.5978425 Z M46.1126027,16.7249929 L46.1126027,20.7993646 L0.0965414914,20.7993646 L0.0965414914,16.7249929 L13.4591342,16.7249929 L11.3991725,11.1883027 L2.45781109,11.1883027 L2.45781109,7.11187788 L43.5489239,7.11187788 L43.5489239,11.1883027 L34.257574,11.1883027 L32.4989201,16.7249929 L46.1126027,16.7249929 Z" id="Fill-20" fill="#FFFFFF" mask="url(#mask-8)"></path>
                </g>
            </g>
        </g>
    </g>
</svg>