<?xml version="1.0" encoding="UTF-8"?>
<svg width="139px" height="30px" viewBox="0 0 139 30" version="1.1" xmlns="http://www.w3.org/2000/svg" xmlns:xlink="http://www.w3.org/1999/xlink">
    <!-- Generator: Sketch 50.2 (55047) - http://www.bohemiancoding.com/sketch -->
    <title>logo</title>
    <desc>Created with Sketch.</desc>
    <defs>
        <polygon id="path-1" points="0 0.0968157895 0 23.2926053 11.8365023 23.2926053 11.8365023 0.0968157895 7.1900812e-21 0.0968157895"></polygon>
    </defs>
    <g id="Page-1" stroke="none" stroke-width="1" fill="none" fill-rule="evenodd">
        <g id="index01" transform="translate(-21.000000, -25.000000)">
            <g id="logo" transform="translate(21.000000, 25.000000)">
                <path d="M29.316559,0.943315789 C28.8701143,0.498578947 28.2989941,0.263315789 27.6663319,0.263315789 C27.0320781,0.263315789 26.4617536,0.498578947 26.0145132,0.943315789 C25.5680685,1.387 25.3327765,1.95410526 25.3327765,2.57936842 C25.3327765,3.20726316 25.5680685,3.77436842 26.0145132,4.21542105 C26.4617536,4.65884211 27.0320781,4.89410526 27.6663319,4.89410526 C28.2989941,4.89410526 28.8674616,4.66015789 29.3139063,4.21805263 C29.7611468,3.77568421 29.9988261,3.20831579 29.9988261,2.57936842 C29.9988261,1.95042105 29.7637994,1.38436842 29.316559,0.943315789" id="Fill-1" fill="#FEFEFE"></path>
                <path d="M29.7524195,21.8260789 L29.7524195,7.06765789 L25.5922344,7.06765789 L25.5922344,21.8368684 C25.5922344,22.3376579 25.8009996,22.7881842 26.1938603,23.1431842 C26.5930874,23.4995 27.101074,23.6876579 27.6663584,23.6876579 C28.2292553,23.6876579 28.7388336,23.4995 29.1396523,23.1392368 C29.5319824,22.7881842 29.738095,22.3434474 29.7524195,21.8260789" id="Fill-3" fill="#FEFEFE"></path>
                <path d="M39.6499357,19.7971579 C38.6777315,19.7971579 37.70818,19.6200526 36.8476532,19.2905789 C35.4674681,18.7584737 33.6281055,17.5592632 32.6829586,14.864 L32.5922372,14.6074211 L46.600201,9.77768421 L46.6903918,10.0342632 C46.8835063,10.5895263 47.2768975,12.474 46.7622792,14.5213684 C46.1606532,16.9018947 44.6003517,18.5416316 42.1206342,19.3968947 C41.3590521,19.6592632 40.5062181,19.7971579 39.6499357,19.7971579 M50.5248288,8.60663158 L49.8794338,6.55663158 C49.6056781,5.68847368 49.0796532,5.249 48.3191323,5.249 C48.0467029,5.249 47.7411151,5.30663158 47.4132448,5.41952632 L29.2822334,11.6703158 C28.6432048,11.8905789 28.2238174,12.2079474 28.0341513,12.6179474 C27.8476685,13.0063684 27.8680941,13.4942632 28.0909185,14.0697895 L28.866825,16.0726842 C30.4791189,20.2568947 33.2556704,22.0850526 35.3008803,22.8837368 C36.6797391,23.4187368 38.2222677,23.7050526 39.7560426,23.7050526 C41.0460368,23.7050526 42.3251552,23.4995263 43.4493574,23.1108421 C49.3433288,21.0797895 52.4488116,14.7082105 50.5248288,8.60663158" id="Fill-5" fill="#00A4DF"></path>
                <g id="Group-9" transform="translate(0.000000, 0.237632)">
                    <mask id="mask-2" fill="white">
                        <use xlink:href="#path-1"></use>
                    </mask>
                    <g id="Clip-8"></g>
                    <path d="M11.4843445,3.31760526 C11.8148674,2.88760526 11.9146078,2.34155263 11.7756078,1.69786842 C11.6191002,0.958394737 10.9803368,0.0968157895 9.69432156,0.0968157895 C5.09750668,0.0968157895 2.57985592,2.43444737 2.40584065,6.85155263 L2.38621088,7.35181579 L1.73179676,7.38944737 C1.29277958,7.42813158 0.886655534,7.63392105 0.562233779,7.97944737 C0.194573473,8.37181579 -0.000132633588,8.87707895 -0.000132633588,9.43786842 C-0.000132633588,10.0036579 0.194573473,10.5144474 0.56117271,10.9097105 C0.888247137,11.2565526 1.28296469,11.4555 1.73020515,11.4960263 L2.39629103,11.5373421 L2.39629103,23.2926053 L6.54135592,23.2926053 L6.54135592,11.5362895 L9.49377958,11.5362895 C9.9890334,11.5362895 10.4389265,11.3289211 10.7951803,10.9391842 C11.1530258,10.5439211 11.3405697,10.0360263 11.3405697,9.46602632 C11.3405697,8.9055 11.1530258,8.40128947 10.7933235,8.00892105 C10.4389265,7.61523684 9.9890334,7.41076316 9.49377958,7.41076316 L6.52756202,7.41076316 L6.52756202,6.81918421 C6.52756202,5.27760526 7.00610401,4.35918421 9.45107156,4.22234211 C10.3378597,4.17365789 11.0784857,3.84313158 11.4843445,3.31760526" id="Fill-7" fill="#FEFEFE" mask="url(#mask-2)"></path>
                </g>
                <g id="Group-12" transform="translate(66.316794, 6.553421)" fill="#FEFEFE">
                    <path d="M13.5327641,0.4645 C13.2483977,0.346342105 12.8913481,0.277657895 12.5626821,0.277657895 C11.9989893,0.277657895 11.2538538,0.4645 10.8861935,1.36371053 L7.47804084,9.3645 L4.14761145,1.37318421 C3.73538626,0.369236842 2.74355229,0.260289474 2.33663244,0.260289474 C2.03502366,0.260289474 1.72890534,0.316605263 1.47530992,0.420289474 C1.13656374,0.559763158 0.534937786,1.00239474 0.273119084,1.64871053 C0.0975122137,2.07765789 0.106531298,2.51581579 0.294605725,2.94976316 L5.19409046,14.7710789 L1.53154656,23.4023947 L6.03976221,23.4210789 L14.6948996,3.04002632 C14.8816477,2.62344737 14.8816477,2.07634211 14.6994092,1.60713158 C14.5585523,1.25239474 14.241558,0.765552632 13.5327641,0.4645" id="Fill-10"></path>
                </g>
                <path d="M61.9393815,16.7433421 C61.7178834,17.2517632 61.4231716,17.6857105 61.0385342,18.0715 C60.6658338,18.4451842 60.2177975,18.7488684 59.7060971,18.9691316 C59.1978452,19.1925526 58.6622708,19.3001842 58.0797441,19.3001842 C57.4844845,19.3001842 56.9489101,19.1925526 56.4388013,18.9691316 C55.9286926,18.7488684 55.4825132,18.4491316 55.1119349,18.0754474 C54.7389693,17.7028158 54.440809,17.2583421 54.2206372,16.7525526 C54.000996,16.2459737 53.8940933,15.7201842 53.8940933,15.1462368 C53.8940933,14.5765 54.000996,14.0520263 54.2179845,13.5454474 C54.4394826,13.0372895 54.7389693,12.5909737 55.1127307,12.2172895 C55.4862269,11.8436053 55.9207345,11.5507105 56.4388013,11.3233421 C56.9489101,11.1030789 57.4852803,10.9967632 58.0797441,10.9967632 C58.6622708,10.9967632 59.1954578,11.1030789 59.7037097,11.3233421 C60.2177975,11.5451842 60.6658338,11.8504474 61.0385342,12.2241316 C61.4231716,12.6086053 61.7178834,13.0425526 61.9393815,13.5522895 C62.1587574,14.0562368 62.2638032,14.5765 62.2638032,15.1462368 C62.2638032,15.7180789 62.1587574,16.2407105 61.9393815,16.7433421 M58.0797441,6.8715 C55.7865094,6.8715 53.8028414,7.68728947 52.1794063,9.29518421 C50.5580933,10.9041316 49.7357651,12.8720263 49.7357651,15.1462368 C49.7357651,17.4220263 50.5580933,19.3904474 52.1794063,21.0007105 C53.8028414,22.6096579 55.7865094,23.4241316 58.0797441,23.4241316 C60.1257498,23.4241316 61.3629559,22.7641316 61.9184254,22.3704474 L62.2210952,22.1549211 L62.2778624,23.5236053 L66.4231926,23.5236053 L66.4231926,15.1462368 C66.4231926,12.8720263 65.5979464,10.9012368 63.9726544,9.28834211 C62.3364865,7.68465789 60.3506964,6.8715 58.0797441,6.8715" id="Fill-13" fill="#FEFEFE"></path>
                <path d="M24.3289525,8.62039474 C24.1756281,7.55828947 23.2623132,6.92381579 21.8853113,6.92381579 L21.52667,6.92539474 C19.0429735,6.92539474 17.3831968,8.42802632 17.3667502,8.44144737 L17.0301261,8.75328947 L17.0274735,7.07986842 L12.877899,7.07986842 L12.8853265,21.8609211 C12.8853265,22.3553947 13.0935613,22.8003947 13.4869525,23.1543421 C13.8840574,23.5088158 14.3976147,23.6972368 14.9700613,23.6972368 C15.5364067,23.6972368 16.0465155,23.5088158 16.4454773,23.1514474 C16.8378074,22.8003947 17.0423284,22.3527632 17.0423284,21.8609211 L17.0423284,15.2648684 C17.0423284,12.8075 19.7735193,11.4377632 21.0200097,11.1903947 C21.2293055,11.1488158 21.4990823,11.1298684 21.7842445,11.1125 C22.0213933,11.1003947 22.2654391,11.0840789 22.4712865,11.0519737 C23.3079391,10.9296053 24.5509811,10.1580263 24.3289525,8.62039474" id="Fill-15" fill="#FEFEFE"></path>
                <path d="M109.881755,1.76068421 C107.591703,4.31752632 104.910913,6.09726316 101.865381,7.05305263 L100.85206,4.98805263 L101.839385,4.70436842 C104.130497,3.87778947 106.289507,2.407 108.217469,0.290157895 L109.881755,1.76068421 Z M110.480728,8.13778947 C108.242669,11.3638421 105.378844,13.8425263 101.918169,15.4701579 L100.644356,13.4809474 L101.294526,13.2227895 C104.130497,11.9835789 106.628518,9.86752632 108.6854,6.89963158 L110.480728,8.13778947 Z M110.506194,15.7798947 C109.881755,17.0698947 109.203997,18.1804211 108.476369,19.1617368 C106.992199,21.1217368 104.520175,22.8527895 101.084434,24.2722632 L99.7313063,22.3622632 C102.073881,21.4562105 104.000516,20.347 105.534822,19.1091053 C106.419753,18.2046316 107.434665,16.7338421 108.527566,14.7727895 L110.506194,15.7798947 Z M98.2243235,18.2327895 C98.9264857,19.1617368 99.6026517,20.347 100.279614,21.8191053 L98.3800353,22.8259474 C97.6770773,21.3027895 97.0269074,20.1398947 96.3764723,19.3401579 L98.2243235,18.2327895 Z M89.7920105,5.11726316 L89.7920105,6.35647368 L89.8705296,6.46015789 L97.9630353,6.46015789 L98.0675506,6.35647368 L98.0675506,5.11726316 L89.7920105,5.11726316 Z M98.0675506,3.54173684 L98.0675506,2.38173684 L97.9630353,2.30357895 L89.8705296,2.30357895 C89.7920105,2.30357895 89.7662796,2.32936842 89.7920105,2.38173684 L89.7920105,3.54173684 L98.0675506,3.54173684 Z M89.6625601,14.3588421 C89.6100372,14.3588421 89.5837758,14.3856842 89.6100372,14.4367368 L89.6100372,15.8817368 L89.6625601,15.9864737 L97.9630353,15.9864737 L98.0675506,15.8817368 L98.0675506,14.4367368 L97.9630353,14.3588421 L89.6625601,14.3588421 Z M87.7367204,17.6880526 C87.5560735,17.6880526 87.4762281,17.5862105 87.4762281,17.4046316 L87.4762281,12.9122632 C87.4762281,12.7335789 87.5560735,12.6556842 87.7367204,12.6556842 L99.8886097,12.6556842 C100.071114,12.6556842 100.175364,12.7335789 100.175364,12.9122632 L100.175364,17.4046316 C100.175364,17.5862105 100.071114,17.6880526 99.8886097,17.6880526 L95.0498712,17.6880526 L95.0498712,21.897 C95.0233445,22.5422632 94.8912414,23.0841053 94.6058139,23.4714737 C94.3461174,23.8327895 94.0328368,24.0906842 93.6962128,24.2198947 C92.9404666,24.5304211 91.7966345,24.3743684 90.2867338,23.8327895 L90.2092758,21.537 C91.5090849,21.947 92.2396307,22.0785789 92.3942815,21.9735789 C92.6799742,21.7922632 92.8364819,21.5864737 92.8364819,21.3796316 L92.8364819,17.6880526 L87.7367204,17.6880526 Z M92.7844895,8.23989474 L87.9701555,8.23989474 C87.7900391,8.23989474 87.6847281,8.13778947 87.6847281,7.95752632 L87.6847281,0.780947368 C87.6847281,0.599105263 87.7900391,0.495684211 87.9701555,0.495684211 L99.8634094,0.495684211 C100.071114,0.495684211 100.175364,0.599105263 100.175364,0.780947368 L100.175364,7.95752632 C100.175364,8.13778947 100.071114,8.23989474 99.8634094,8.23989474 L94.8912414,8.23989474 L94.8912414,9.48042105 L101.553692,9.48042105 L101.553692,11.4672632 L86.1753578,11.4672632 L86.1753578,9.48042105 L92.7844895,9.48042105 L92.7844895,8.23989474 Z M91.2499189,19.5204211 C89.99998,21.2775263 88.6216517,22.6201579 87.216001,23.4967368 C86.8780506,22.7225263 86.4883731,22.1309474 86.1231002,21.7409474 C87.4234399,20.9159474 88.5433979,19.7543684 89.4543254,18.2567368 L91.2499189,19.5204211 Z" id="Fill-17" fill="#00A4DF"></path>
                <path d="M130.334517,6.48557895 L123.205462,6.48557895 L124.271836,9.32584211 L129.450382,9.32584211 L130.334517,6.48557895 Z M120.317233,19.1874211 L120.317233,21.4050526 C120.291502,21.4845263 120.317233,21.5100526 120.394956,21.5368947 L133.250599,21.5368947 L133.354584,21.4050526 L133.354584,19.1874211 L120.317233,19.1874211 Z M133.354584,17.0953158 L133.354584,14.9526842 C133.354584,14.8761053 133.326466,14.8492632 133.250599,14.8492632 L120.394956,14.8492632 C120.317233,14.8492632 120.291502,14.8761053 120.317233,14.9526842 L120.317233,17.0953158 L133.354584,17.0953158 Z M119.17234,3.05373684 L134.732116,3.05373684 L134.732116,0.960578947 L119.17234,0.960578947 L119.17234,3.05373684 Z M135.226574,23.6258421 L118.391128,23.6258421 C118.209685,23.6258421 118.10517,23.5221579 118.10517,23.2908421 L118.10517,13.0697895 C118.10517,12.8611053 118.209685,12.759 118.391128,12.759 L135.226574,12.759 C135.46001,12.759 135.567443,12.8611053 135.567443,13.0697895 L135.567443,23.2908421 C135.567443,23.5221579 135.46001,23.6258421 135.226574,23.6258421 L135.226574,23.6258421 Z M138.818823,9.32584211 L138.818823,11.4161053 L114.983506,11.4161053 L114.983506,9.32584211 L121.904592,9.32584211 L120.837422,6.48557895 L116.206122,6.48557895 L116.206122,4.394 L137.49116,4.394 L137.49116,6.48557895 L132.677887,6.48557895 L131.766695,9.32584211 L138.818823,9.32584211 Z" id="Fill-19" fill="#00A4DF"></path>
            </g>
        </g>
    </g>
</svg>